<svg width="35" height="35" viewBox="0 0 35 35" fill="none" xmlns="http://www.w3.org/2000/svg">
<g id="Group">
<path id="Vector" d="M4.38462 6.76944C3.75218 6.76944 3.14564 7.02067 2.69844 7.46787C2.25124 7.91507 2 8.5216 2 9.15404V30.6154C2 31.2478 2.25124 31.8544 2.69844 32.3016C3.14564 32.7488 3.75218 33 4.38462 33H30.6154C31.2478 33 31.8544 32.7488 32.3016 32.3016C32.7488 31.8544 33 31.2478 33 30.6154V9.15404C33 8.5216 32.7488 7.91507 32.3016 7.46787C31.8544 7.02067 31.2478 6.76944 30.6154 6.76944H25.8462" stroke="#2E1619" stroke-width="2.21429" stroke-linecap="round" stroke-linejoin="round"/>
<path id="Vector_2" d="M9.15402 2V11.5384" stroke="#2E1619" stroke-width="2.21429" stroke-linecap="round" stroke-linejoin="round"/>
<path id="Vector_3" d="M25.8463 2V11.5384" stroke="#2E1619" stroke-width="2.21429" stroke-linecap="round" stroke-linejoin="round"/>
<path id="Vector_4" d="M9.15399 6.76944H21.0771" stroke="#2E1619" stroke-width="2.21429" stroke-linecap="round" stroke-linejoin="round"/>
<path id="Vector_5" d="M9.15365 19.885C9.81213 19.885 10.3459 19.3512 10.3459 18.6927C10.3459 18.0342 9.81213 17.5004 9.15365 17.5004C8.49516 17.5004 7.96134 18.0342 7.96134 18.6927C7.96134 19.3512 8.49516 19.885 9.15365 19.885Z" stroke="#2E1619" stroke-width="2.21429" stroke-linecap="round" stroke-linejoin="round"/>
<path id="Vector_6" d="M17.5003 19.885C18.1588 19.885 18.6926 19.3512 18.6926 18.6927C18.6926 18.0342 18.1588 17.5004 17.5003 17.5004C16.8418 17.5004 16.308 18.0342 16.308 18.6927C16.308 19.3512 16.8418 19.885 17.5003 19.885Z" stroke="#2E1619" stroke-width="2.21429" stroke-linecap="round" stroke-linejoin="round"/>
<path id="Vector_7" d="M25.846 19.885C26.5045 19.885 27.0383 19.3512 27.0383 18.6927C27.0383 18.0342 26.5045 17.5004 25.846 17.5004C25.1875 17.5004 24.6537 18.0342 24.6537 18.6927C24.6537 19.3512 25.1875 19.885 25.846 19.885Z" stroke="#2E1619" stroke-width="2.21429" stroke-linecap="round" stroke-linejoin="round"/>
<path id="Vector_8" d="M9.15365 27.0384C9.81213 27.0384 10.3459 26.5046 10.3459 25.8461C10.3459 25.1876 9.81213 24.6538 9.15365 24.6538C8.49516 24.6538 7.96134 25.1876 7.96134 25.8461C7.96134 26.5046 8.49516 27.0384 9.15365 27.0384Z" stroke="#2E1619" stroke-width="2.21429" stroke-linecap="round" stroke-linejoin="round"/>
</g>
</svg>
