<svg width="26" height="26" viewBox="0 0 26 26" fill="white" xmlns="http://www.w3.org/2000/svg">
<g id="Icon_downArrow">
<path id="Vector" d="M5.23269 10.1228C5.46178 9.88411 5.77246 9.75 6.09641 9.75C6.42035 9.75 6.73103 9.88411 6.96012 10.1228L13.0074 16.4262L19.0546 10.1228C19.285 9.89088 19.5936 9.76252 19.9139 9.76542C20.2343 9.76833 20.5407 9.90225 20.7672 10.1384C20.9937 10.3745 21.1222 10.6938 21.125 11.0277C21.1277 11.3616 21.0046 11.6833 20.7821 11.9234L13.8711 19.1272C13.642 19.3659 13.3313 19.5 13.0074 19.5C12.6834 19.5 12.3728 19.3659 12.1437 19.1272L5.23269 11.9234C5.00366 11.6846 4.875 11.3608 4.875 11.0231C4.875 10.6855 5.00366 10.3616 5.23269 10.1228Z" fill="#384449"/>
</g>
</svg>
