<svg width="9" height="7" viewBox="0 0 9 7" fill="none" xmlns="http://www.w3.org/2000/svg">
<path id="Vector" d="M0.44582 6.67155H8.46598C8.54718 6.67129 8.62678 6.6489 8.69619 6.60677C8.76561 6.56465 8.82223 6.50439 8.85995 6.43248C8.89767 6.36057 8.91506 6.27974 8.91026 6.19868C8.90545 6.11762 8.87863 6.03941 8.83268 5.97246L4.8226 0.180119C4.6564 -0.0600398 4.25629 -0.0600398 4.08965 0.180119L0.0795661 5.97246C0.0331494 6.03927 0.00592952 6.11752 0.000863916 6.19871C-0.00420169 6.27991 0.0130807 6.36094 0.0508334 6.433C0.0885861 6.50506 0.145365 6.56539 0.215002 6.60745C0.284638 6.64951 0.364469 6.67168 0.44582 6.67155Z" fill="black"/>
</svg>
