<svg width="24" height="25" viewBox="0 0 24 25" fill="none" xmlns="http://www.w3.org/2000/svg">
<g id="Icon_blood sugar">
<path id="Vector 18" d="M5.16944 13.6267C5.75932 10.2684 9.5233 5.41184 11.3315 3.40332C13.3705 5.28969 14.7941 8.10499 15.251 9.27684L11.4958 11.3462L11.451 16.4844L15.6305 19.3238C14.8438 20.2512 12.71 22.1012 10.4678 22.0816C7.66517 22.0571 4.43209 17.8246 5.16944 13.6267Z" fill="white"/>
<path id="Vector 17" d="M15.9436 10.2172L12.424 12.0551L12.3914 15.7919L15.8764 17.9245L19.1604 16.3182L18.9615 12.3457L15.9436 10.2172Z" fill="white"/>
<path id="Vector" d="M19.1955 12.2989L15.991 10.1531L12.3359 11.9272M19.1955 12.2989L15.84 13.8227M19.1955 12.2989L19.1598 16.3931L15.8018 18.1993M15.84 13.8227L12.3359 11.9272M15.84 13.8227L15.8018 18.1993M12.3359 11.9272L12.3011 15.9097L15.8018 18.1993M7.1937 16.7411C7.28825 17.9607 8.14002 20.4057 10.7907 20.4288M5.15644 15.1337C5.19473 10.744 9.6637 4.91071 11.363 3.05324C12.2723 4.07564 13.9366 6.46549 15.2109 9.11542L11.5254 11.2452L11.3529 16.4779L15.6318 19.1861C15.6318 19.1861 13.0032 21.9399 11.1979 21.9691C6.96383 22.0375 5.12963 18.2068 5.15644 15.1337Z" stroke="#EDEBEB" stroke-width="0.700692" stroke-linecap="round"/>
</g>
</svg>
