<svg width="19" height="18" viewBox="0 0 19 18" fill="none" xmlns="http://www.w3.org/2000/svg">
<g id="Icon_Bubbles_small">
<g id="Group">
<path id="Vector" d="M10.8643 12.5753C11.0298 12.2851 11.2763 12.0461 11.5755 11.8856" stroke="white" stroke-width="1.66669" stroke-linecap="round" stroke-linejoin="round"/>
<path id="Vector_2" d="M13.7554 5.45319C13.8346 5.31446 13.9525 5.20015 14.0956 5.12332" stroke="white" stroke-width="1.25002" stroke-linecap="round" stroke-linejoin="round"/>
<path id="Vector_3" d="M3.3811 4.08292C3.64598 3.61859 4.04043 3.23606 4.51922 2.97919" stroke="white" stroke-width="1.66669" stroke-linecap="round" stroke-linejoin="round"/>
</g>
<path id="Vector_4" d="M5.59192 9.90636C8.12802 9.90636 10.1838 7.91266 10.1838 5.45318C10.1838 2.99371 8.12802 1 5.59192 1C3.05582 1 1 2.99371 1 5.45318C1 7.91266 3.05582 9.90636 5.59192 9.90636ZM14.7074 8.81781C15.4194 8.81781 16.1023 8.5435 16.6058 8.05522C17.1093 7.56695 17.3921 6.90471 17.3921 6.21418C17.3921 5.52366 17.1093 4.86141 16.6058 4.37314C16.1023 3.88486 15.4194 3.61055 14.7074 3.61055C13.9953 3.61055 13.3125 3.88486 12.809 4.37314C12.3055 4.86141 12.0226 5.52366 12.0226 6.21418C12.0226 6.90471 12.3055 7.56695 12.809 8.05522C13.3125 8.5435 13.9953 8.81781 14.7074 8.81781ZM12.2247 16.8335C14.1033 16.8335 15.6261 15.3567 15.6261 13.5349C15.6261 11.713 14.1033 10.2362 12.2247 10.2362C10.3461 10.2362 8.82327 11.713 8.82327 13.5349C8.82327 15.3567 10.3461 16.8335 12.2247 16.8335Z" fill="white"/>
<path id="Vector_5" d="M8.14306 5.45319C8.14306 6.02184 7.91013 6.56721 7.4955 6.96931C7.08087 7.37141 6.51851 7.59731 5.93214 7.59731" stroke="#EDEBEB" stroke-width="4.16672" stroke-linecap="round" stroke-linejoin="round"/>
<path id="Vector_6" d="M14.2656 13.5349C14.2656 13.9723 14.0865 14.3918 13.7675 14.7011C13.4486 15.0104 13.016 15.1842 12.5649 15.1842" stroke="#EDEBEB" stroke-width="2.50003" stroke-linecap="round" stroke-linejoin="round"/>
<path id="Vector_7" d="M16.1364 6.44278C16.1364 6.70524 16.0289 6.95694 15.8375 7.14253C15.6461 7.32812 15.3866 7.43238 15.116 7.43238" stroke="#EDEBEB" stroke-width="2.08336" stroke-linecap="round" stroke-linejoin="round"/>
<g id="Group_2">
<path id="Vector_8" d="M5.93212 9.90636C8.46821 9.90636 10.524 7.91266 10.524 5.45318C10.524 2.99371 8.46821 1 5.93212 1C3.39602 1 1.3402 2.99371 1.3402 5.45318C1.3402 7.91266 3.39602 9.90636 5.93212 9.90636ZM14.9459 8.91677C15.6676 8.91677 16.3597 8.63874 16.87 8.14385C17.3803 7.64895 17.667 6.97773 17.667 6.27785C17.667 5.57796 17.3803 4.90674 16.87 4.41185C16.3597 3.91695 15.6676 3.63892 14.9459 3.63892C14.2242 3.63892 13.5321 3.91695 13.0217 4.41185C12.5114 4.90674 12.2247 5.57796 12.2247 6.27785C12.2247 6.97773 12.5114 7.64895 13.0217 8.14385C13.5321 8.63874 14.2242 8.91677 14.9459 8.91677ZM12.5649 16.8335C14.4435 16.8335 15.9663 15.3567 15.9663 13.5349C15.9663 11.713 14.4435 10.2362 12.5649 10.2362C10.6863 10.2362 9.16346 11.713 9.16346 13.5349C9.16346 15.3567 10.6863 16.8335 12.5649 16.8335Z" stroke="white" stroke-width="0.833344" stroke-linecap="round" stroke-linejoin="round"/>
<path id="Vector_9" d="M12.5649 16.8335C14.4436 16.8335 15.9664 15.3567 15.9664 13.5349C15.9664 11.713 14.4436 10.2362 12.5649 10.2362C10.6863 10.2362 9.16353 11.713 9.16353 13.5349C9.16353 15.3567 10.6863 16.8335 12.5649 16.8335Z" stroke="white" stroke-width="0.833344" stroke-linecap="round" stroke-linejoin="round"/>
</g>
</g>
</svg>
