<svg width="24" height="24" viewBox="0 0 24 24" fill="none" xmlns="http://www.w3.org/2000/svg">
<g id="healthicons:blood-pressure-2-outline">
<g id="Group">
<path id="Vector" d="M12.5 10.75L11.75 13.25L12.5 14.25L13.25 13.25L12.5 10.75Z" fill="white"/>
<path id="Vector_2" fill-rule="evenodd" clip-rule="evenodd" d="M17.0005 8.8165C16.5427 8.58746 16.1065 8.31736 15.6975 8.0095C14.926 7.423 14 6.474 14 5.224C14 4.1105 14.842 3 16.094 3C16.675 3 17.145 3.232 17.5 3.5785C17.8545 3.232 18.325 3 18.9065 3C20.158 3 21 4.1115 21 5.224C21 6.4355 20.0695 7.3855 19.3055 7.9755C18.8952 8.29022 18.4586 8.56908 18.0005 8.809C18.0035 9.681 18.0175 10.5135 18.0305 11.3015C18.0605 13.029 18.0855 14.5435 17.981 15.794C17.822 17.688 17.3525 19.208 15.9485 20.0305C14.568 20.839 12.528 21.143 10.8385 20.9375C9.9905 20.8345 9.181 20.5975 8.5685 20.1885C8.123 19.891 7.7695 19.4905 7.6035 18.9885C6.565 18.941 5.532 18.7515 4.715 18.4125C3.8325 18.0465 3 17.4125 3 16.42V6.561H3.0015C3.00051 6.54068 3.00001 6.52034 3 6.5C3 5.1195 5.2385 4 8 4C10.7615 4 13 5.1195 13 6.5C13 6.52 12.9995 6.541 12.9985 6.561H13V9.5355C13.833 9.65595 14.5947 10.0725 15.1455 10.7088C15.6964 11.3451 15.9996 12.1586 15.9995 13.0002C15.9994 13.8419 15.6962 14.6553 15.1452 15.2915C14.5942 15.9277 13.8325 16.3442 12.9995 16.4645C12.9765 17.472 12.171 18.1095 11.2825 18.4715C10.5475 18.7705 9.6425 18.9355 8.7175 18.9845C8.8175 19.1185 8.9525 19.2425 9.1245 19.357C9.5595 19.648 10.1995 19.8525 10.9595 19.945C12.485 20.1305 14.293 19.841 15.4435 19.1675C16.399 18.6075 16.831 17.54 16.9845 15.7105C17.085 14.5095 17.0605 13.0795 17.032 11.3915C17.0153 10.5333 17.0048 9.6749 17.0005 8.8165ZM16.094 4C15.503 4 15 4.548 15 5.224C15 5.9715 15.574 6.66 16.3025 7.2125C16.676 7.49361 17.0751 7.73902 17.4945 7.9455C17.9162 7.72783 18.3178 7.47316 18.6945 7.1845C19.4305 6.6155 20 5.9275 20 5.2245C20 4.5475 19.497 4 18.906 4C18.4945 4 18.1665 4.229 17.937 4.6425L17.5 5.431L17.063 4.6425C16.833 4.229 16.505 4 16.094 4ZM8 9C9.6355 9 11.0875 8.6075 12 8V9.535C11.1666 9.65484 10.4044 10.071 9.85298 10.7073C9.30156 11.3435 8.99794 12.1572 8.99776 12.9991C8.99757 13.841 9.30085 14.6548 9.85198 15.2913C10.4031 15.9278 11.1652 16.3443 11.9985 16.4645C11.9765 16.8535 11.662 17.237 10.9055 17.545C10.143 17.8555 9.0895 18.0115 8.0055 17.9995C7.85207 17.9977 7.6987 17.9925 7.5455 17.984V8.99C7.6955 8.9965 7.847 9 8 9ZM12 6.5C12 6.6075 11.887 6.974 11.0885 7.3735C10.3495 7.7425 9.259 8 8 8C6.741 8 5.65 7.7425 4.9115 7.3735C4.113 6.974 4 6.6075 4 6.5C4 6.3925 4.113 6.026 4.9115 5.6265C5.6505 5.2575 6.741 5 8 5C9.259 5 10.35 5.2575 11.0885 5.6265C11.887 6.026 12 6.3925 12 6.5ZM12.5 15.5C13.163 15.5 13.7989 15.2366 14.2678 14.7678C14.7366 14.2989 15 13.663 15 13C15 12.337 14.7366 11.7011 14.2678 11.2322C13.7989 10.7634 13.163 10.5 12.5 10.5C11.837 10.5 11.2011 10.7634 10.7322 11.2322C10.2634 11.7011 10 12.337 10 13C10 13.663 10.2634 14.2989 10.7322 14.7678C11.2011 15.2366 11.837 15.5 12.5 15.5Z" fill="white"/>
</g>
</g>
</svg>
