<svg width="24" height="24" viewBox="0 0 24 24" fill="none" xmlns="http://www.w3.org/2000/svg">
<g id="fluent:heart-pulse-24-regular">
<path id="Vector" d="M12.82 5.58001L12 6.40201L11.176 5.57801C10.325 4.72592 9.2125 4.18431 8.0169 4.04001C6.82131 3.89572 5.6119 4.15711 4.58261 4.78227C3.55332 5.40743 2.76379 6.36014 2.34063 7.48761C1.91747 8.61509 1.8852 9.85201 2.249 11H3.854C3.47484 10.1739 3.39806 9.24084 3.63709 8.36388C3.87613 7.48692 4.41576 6.72186 5.16168 6.20242C5.90759 5.68299 6.81233 5.44222 7.71776 5.52221C8.62319 5.6022 9.4717 5.99785 10.115 6.64001L11.473 7.99701C11.5437 8.06775 11.6277 8.12365 11.7203 8.16141C11.8129 8.19918 11.9121 8.21806 12.012 8.21695C12.112 8.21583 12.2107 8.19473 12.3024 8.1549C12.3941 8.11507 12.4769 8.05731 12.546 7.98501L13.88 6.64001C14.5237 5.99786 15.3725 5.60219 16.2783 5.52206C17.184 5.44193 18.0891 5.68244 18.8356 6.2016C19.582 6.72077 20.1225 7.4856 20.3625 8.3626C20.6026 9.2396 20.527 10.1731 20.149 11H21.754C22.1149 9.85172 22.0803 8.61557 21.6557 7.48927C21.2311 6.36297 20.4411 5.41158 19.412 4.78726C18.3829 4.16293 17.1742 3.90175 15.9791 4.04546C14.7841 4.18918 13.6717 4.7295 12.82 5.58001ZM11.47 21.075L4.894 14.5H6.857C6.908 14.5 6.959 14.497 7.009 14.493L12 19.484L16.988 14.499H19.11L12.53 21.075C12.3894 21.2155 12.1987 21.2944 12 21.2944C11.8012 21.2944 11.6106 21.2155 11.47 21.075ZM9.42 8.41501C9.35707 8.28937 9.26011 8.18394 9.14017 8.11073C9.02023 8.03752 8.88214 7.99948 8.74163 8.00094C8.60112 8.0024 8.46384 8.0433 8.34545 8.11898C8.22706 8.19467 8.13231 8.30209 8.072 8.42901L6.382 11.999H2.75C2.55109 11.999 2.36032 12.078 2.21967 12.2187C2.07902 12.3593 2 12.5501 2 12.749C2 12.9479 2.07902 13.1387 2.21967 13.2793C2.36032 13.42 2.55109 13.499 2.75 13.499H6.857C6.99904 13.499 7.13816 13.4587 7.25819 13.3828C7.37821 13.3069 7.47421 13.1984 7.535 13.07L8.769 10.464L11.329 15.584C11.3865 15.6995 11.4729 15.7982 11.5798 15.8705C11.6866 15.9429 11.8103 15.9864 11.9389 15.997C12.0675 16.0075 12.1967 15.9847 12.3139 15.9308C12.4311 15.8768 12.5324 15.7936 12.608 15.689L15.306 11.953L16.436 13.243C16.5063 13.3236 16.5929 13.3882 16.6902 13.4325C16.7875 13.4768 16.8931 13.4998 17 13.5H21.25C21.4489 13.5 21.6397 13.421 21.7803 13.2803C21.921 13.1397 22 12.9489 22 12.75C22 12.5511 21.921 12.3603 21.7803 12.2197C21.6397 12.079 21.4489 12 21.25 12H17.34L15.814 10.257C15.7398 10.1722 15.6474 10.1051 15.5437 10.0609C15.4399 10.0167 15.3276 9.99643 15.215 10.0016C15.1024 10.0068 14.9924 10.0373 14.8932 10.0909C14.794 10.1445 14.7081 10.2197 14.642 10.311L12.117 13.807L9.421 8.41501H9.42Z" fill="white"/>
</g>
</svg>
