<svg width="12" height="12" viewBox="0 0 12 12" fill="none" xmlns="http://www.w3.org/2000/svg">
<g id="bxs:up-arrow">
<path id="Vector" d="M2.14676 9.01284H9.8828C9.96113 9.0126 10.0379 8.99099 10.1049 8.95036C10.1718 8.90973 10.2264 8.8516 10.2628 8.78224C10.2992 8.71288 10.316 8.63491 10.3113 8.55672C10.3067 8.47854 10.2808 8.40309 10.2365 8.33852L6.36849 2.75138C6.20818 2.51972 5.82224 2.51972 5.6615 2.75138L1.79348 8.33852C1.74871 8.40296 1.72246 8.47844 1.71757 8.55676C1.71268 8.63507 1.72935 8.71323 1.76577 8.78274C1.80218 8.85225 1.85695 8.91045 1.92412 8.95101C1.99129 8.99158 2.06829 9.01296 2.14676 9.01284Z" fill="#D1D5DB"/>
</g>
</svg>
