<svg width="216" height="216" viewBox="0 0 216 216" fill="none" xmlns="http://www.w3.org/2000/svg">
<g id="Svg_sample1">
<g id="freepik--background-complete--inject-120">
<path id="Vector" d="M194.322 38.975H128.261V123.371H194.322V38.975Z" fill="white"/>
<path id="Vector_2" d="M194.322 69.5563H128.261V70.5802H194.322V69.5563Z" fill="#FFC7BD"/>
<path id="Vector_3" d="M194.322 95.9515H128.261V96.9754H194.322V95.9515Z" fill="#FFC7BD"/>
<path id="Vector_4" d="M194.322 122.347H128.261V123.371H194.322V122.347Z" fill="#FFC7BD"/>
<path id="Vector_5" d="M162.052 38.975H160.531V122.347H162.052V38.975Z" fill="#FCF4F3"/>
<path id="Vector_6" d="M163.521 95.9473H171.348V82.9181H163.521V95.9473Z" fill="#FCF4F3"/>
<path id="Vector_7" d="M162.449 82.9181H172.424V80.7019H162.449V82.9181Z" fill="#FFEBEB"/>
<path id="Vector_8" d="M164.527 93.8261H170.346V85.7909H164.527V93.8261Z" fill="#FFC7BD"/>
<path id="Vector_9" d="M174.07 95.9473H181.898V82.9181H174.07V95.9473Z" fill="#FCF4F3"/>
<path id="Vector_10" d="M172.999 82.9181H182.974V80.7019H172.999V82.9181Z" fill="#FFEBEB"/>
<path id="Vector_11" d="M175.077 93.8261H180.896V85.7909H175.077V93.8261Z" fill="#FFC7BD"/>
<path id="Vector_12" d="M184.619 95.9473H192.447V82.9181H184.619V95.9473Z" fill="#FCF4F3"/>
<path id="Vector_13" d="M183.548 82.9181H193.523V80.7019H183.548V82.9181Z" fill="#FFEBEB"/>
<path id="Vector_14" d="M185.626 93.8261H191.445V85.7909H185.626V93.8261Z" fill="#FFC7BD"/>
<path id="Vector_15" d="M139.998 122.347H129.63V110.57C129.63 109.962 129.872 109.379 130.302 108.948C130.732 108.518 131.316 108.276 131.924 108.276H137.713C138.321 108.276 138.905 108.518 139.335 108.948C139.765 109.379 140.007 109.962 140.007 110.57V122.347H139.998Z" fill="#FCF4F3"/>
<path id="Vector_16" d="M131.803 108.32H137.817V106.885H131.803V108.32Z" fill="#FCF4F3"/>
<path id="Vector_17" d="M130.274 106.885H139.35V105.352H130.274V106.885Z" fill="#FFEBEB"/>
<path id="Vector_18" d="M131.285 119.28H139.998V111.685H131.285V119.28Z" fill="#FFC7BD"/>
<path id="Vector_19" d="M151.597 122.347H141.229V110.57C141.229 109.962 141.471 109.379 141.901 108.948C142.331 108.518 142.915 108.276 143.523 108.276H149.312C149.92 108.276 150.504 108.518 150.934 108.948C151.364 109.379 151.606 109.962 151.606 110.57V122.347H151.597Z" fill="#FCF4F3"/>
<path id="Vector_20" d="M143.407 108.32H149.42V106.885H143.407V108.32Z" fill="#FCF4F3"/>
<path id="Vector_21" d="M141.873 106.885H150.949V105.352H141.873V106.885Z" fill="#FFEBEB"/>
<path id="Vector_22" d="M142.884 119.28H151.597V111.685H142.884V119.28Z" fill="#FFC7BD"/>
<path id="Vector_23" d="M163.071 69.6687H176.074V52.8509H163.071V69.6687Z" fill="#FCF4F3"/>
<path id="Vector_24" d="M163.071 52.8509H176.074L173.578 49.4208H165.564L163.071 52.8509Z" fill="#FCF4F3"/>
<path id="Vector_25" d="M164.082 49.4165H175.064V46.0815H164.082V49.4165Z" fill="#FFC7BD"/>
<path id="Vector_26" d="M164.925 64.152H176.07V56.592H164.925V64.152Z" fill="#FFEBEB"/>
<path id="Vector_27" d="M177.047 69.6687H190.05V52.8509H177.047V69.6687Z" fill="#FCF4F3"/>
<path id="Vector_28" d="M177.047 52.8509H190.05L187.553 49.4208H179.544L177.047 52.8509Z" fill="#FCF4F3"/>
<path id="Vector_29" d="M178.057 49.4165H189.039V46.0815H178.057V49.4165Z" fill="#FFC7BD"/>
<path id="Vector_30" d="M178.904 64.152H190.05V56.592H178.904V64.152Z" fill="#FFEBEB"/>
<path id="Vector_31" d="M156.004 69.552H132.702C132.058 69.552 131.44 69.2962 130.985 68.8409C130.53 68.3856 130.274 67.7681 130.274 67.1242C130.274 66.4803 130.53 65.8628 130.985 65.4075C131.44 64.9521 132.058 64.6964 132.702 64.6964H156.004C156.647 64.6975 157.263 64.9538 157.718 65.409C158.172 65.8642 158.427 66.481 158.427 67.1242C158.427 67.7673 158.172 68.3842 157.718 68.8394C157.263 69.2946 156.647 69.5509 156.004 69.552Z" fill="#FFEBEB"/>
<path id="Vector_32" d="M156.004 64.368H132.702C132.059 64.368 131.442 64.1128 130.987 63.6585C130.531 63.2041 130.275 62.5877 130.274 61.9445C130.274 61.3006 130.53 60.6831 130.985 60.2278C131.44 59.7725 132.058 59.5167 132.702 59.5167H156.004C156.647 59.5178 157.263 59.7741 157.718 60.2293C158.172 60.6845 158.427 61.3013 158.427 61.9445C158.427 62.5873 158.172 63.2037 157.718 63.6582C157.263 64.1127 156.647 64.368 156.004 64.368Z" fill="#FFEBEB"/>
<path id="Vector_33" d="M155.598 59.2186H133.103C132.645 59.2186 132.206 59.0365 131.882 58.7125C131.558 58.3884 131.375 57.9489 131.375 57.4906C131.375 57.0323 131.558 56.5928 131.882 56.2687C132.206 55.9446 132.645 55.7626 133.103 55.7626H155.598C156.056 55.7626 156.496 55.9446 156.82 56.2687C157.144 56.5928 157.326 57.0323 157.326 57.4906C157.326 57.9489 157.144 58.3884 156.82 58.7125C156.496 59.0365 156.056 59.2186 155.598 59.2186Z" fill="#FCF4F3"/>
<path id="Vector_34" d="M155.598 55.4257H133.103C132.645 55.4257 132.206 55.2436 131.882 54.9195C131.558 54.5955 131.375 54.156 131.375 53.6977C131.375 53.2394 131.558 52.7998 131.882 52.4758C132.206 52.1517 132.645 51.9697 133.103 51.9697H155.598C156.056 51.9697 156.496 52.1517 156.82 52.4758C157.144 52.7998 157.326 53.2394 157.326 53.6977C157.326 54.156 157.144 54.5955 156.82 54.9195C156.496 55.2436 156.056 55.4257 155.598 55.4257Z" fill="#FCF4F3"/>
<path id="Vector_35" d="M194.322 142.033L161.343 142.154L128.261 142.223H128.071V142.033L128.045 127.462V127.246H128.261L161.291 127.306L194.322 127.388H194.4V127.462L194.322 142.033ZM194.322 142.033L194.249 127.462L194.322 127.539L161.291 127.621L128.261 127.678L128.477 127.462L128.451 142.033L128.261 141.847L161.244 141.916L194.322 142.033Z" fill="#FFC7BD"/>
<path id="Vector_36" d="M167.504 133.631H155.079V135.713H167.504V133.631Z" fill="#FFC7BD"/>
<path id="Vector_37" d="M194.322 160.056L161.343 160.177L128.261 160.246H128.071V160.056L128.045 145.485V145.269H128.261L161.291 145.329L194.322 145.411H194.4V145.485L194.322 160.056ZM194.322 160.056L194.249 145.485L194.322 145.562L161.291 145.644L128.261 145.701L128.477 145.485L128.451 160.056L128.261 159.87L161.244 159.939L194.322 160.056Z" fill="#FFC7BD"/>
<path id="Vector_38" d="M167.504 151.654H155.079V153.736H167.504V151.654Z" fill="#FFC7BD"/>
<path id="Vector_39" d="M194.322 178.079L161.343 178.2L128.261 178.269H128.071V178.079L128.045 163.508V163.296H128.261L161.291 163.357L194.322 163.434H194.4V163.508L194.322 178.079ZM194.322 178.079L194.249 163.508L194.322 163.585L161.291 163.663L128.261 163.728L128.477 163.512L128.451 178.083L128.261 177.898L161.244 177.967L194.322 178.079Z" fill="#FFC7BD"/>
<path id="Vector_40" d="M167.504 169.677H155.079V171.759H167.504V169.677Z" fill="#FFC7BD"/>
<path id="Vector_41" d="M61.8192 31.1774H26.4341V74.101H61.8192V31.1774Z" fill="#FFE8ED"/>
<path id="Vector_42" d="M57.7756 35.0914H30.4775V70.1784H57.7756V35.0914Z" fill="white"/>
<path id="Vector_43" d="M31.5446 35.0914H30.4775V70.1784H31.5446V35.0914Z" fill="#FFEBEB"/>
<path id="Vector_44" d="M62.8861 31.1775H61.8191V74.101H62.8861V31.1775Z" fill="#FFEBEB"/>
<path id="Vector_45" d="M46.0598 39.9297H39.623V59.1062H46.0598V39.9297Z" fill="#FFEBEB"/>
<path id="Vector_46" d="M54.1988 62.6012H36.5991V52.7732H54.1988V62.6012ZM37.0311 62.1692H53.7668V53.2052H37.0311V62.1692Z" fill="#FCF4F3"/>
<path id="Vector_47" d="M107.335 62.7221H71.9497V105.646H107.335V62.7221Z" fill="#FCF4F3"/>
<path id="Vector_48" d="M103.291 66.6404H75.9932V101.727H103.291V66.6404Z" fill="white"/>
<path id="Vector_49" d="M77.0602 66.6404H75.9932V101.727H77.0602V66.6404Z" fill="#FFEBEB"/>
<path id="Vector_50" d="M108.406 62.7221H107.339V105.646H108.406V62.7221Z" fill="#FFEBEB"/>
<path id="Vector_51" d="M92.5171 75.708H87.0005V89.653H92.5171V75.708Z" fill="#FCF4F3"/>
<path id="Vector_52" d="M98.5392 94.0118H83.2896V83.9678H98.5392V94.0118ZM83.7216 93.5798H98.1072V84.3998H83.7216V93.5798Z" fill="#FFEBEB"/>
</g>
<g id="freepik--Shadow--inject-120">
<path id="Vector_53" d="M108 191.869C146.358 191.869 177.453 189.84 177.453 187.337C177.453 184.834 146.358 182.805 108 182.805C69.6424 182.805 38.5474 184.834 38.5474 187.337C38.5474 189.84 69.6424 191.869 108 191.869Z" fill="#FAF0EF" fill-opacity="0.2"/>
</g>
<g id="freepik--Plant--inject-120">
<path id="Vector_54" d="M186.391 152.556C186.391 152.556 193.765 150.885 197.808 147.161C201.852 143.437 204.107 136.763 204.107 136.763C201.304 137.295 198.54 138.017 195.834 138.923C194.823 139.966 193.979 141.159 193.333 142.461C193.269 141.619 193.269 140.775 193.333 139.933C192.388 140.34 191.504 140.877 190.706 141.527C187.337 144.474 186.391 152.556 186.391 152.556Z" fill="#FF7C65"/>
<path id="Vector_55" d="M199.502 140.007C200.508 139.311 201.532 138.642 202.526 137.938C202.536 137.928 202.542 137.915 202.544 137.901C202.545 137.887 202.542 137.873 202.534 137.861C202.527 137.85 202.515 137.841 202.502 137.837C202.489 137.832 202.474 137.833 202.461 137.838C200.565 138.974 198.69 140.188 196.875 141.458C196.245 141.905 195.623 142.363 195.009 142.832L195.139 142.616C195.359 142.245 195.571 141.882 195.826 141.519C196.288 140.779 196.813 140.079 197.394 139.428C197.415 139.402 197.394 139.367 197.355 139.393C196.785 140.054 196.21 140.711 195.683 141.411C195.435 141.748 195.202 142.093 194.983 142.448C194.871 142.629 194.759 142.815 194.651 143.005L194.543 143.195C193.588 143.942 192.659 144.724 191.773 145.549C191.226 146.059 190.698 146.586 190.188 147.131C190.473 146.241 190.724 145.338 191.052 144.456C191.052 144.426 191.017 144.413 191.004 144.456C190.685 145.377 190.331 146.301 190.084 147.251C189.518 147.861 188.978 148.491 188.469 149.152L188.495 149.031C188.581 148.681 188.667 148.336 188.758 147.99C188.94 147.325 189.134 146.66 189.359 146.007C189.783 144.649 190.456 143.38 191.341 142.266C191.363 142.24 191.341 142.206 191.307 142.232C189.925 143.954 188.958 145.972 188.482 148.128C188.404 148.444 188.326 148.759 188.257 149.075C188.218 149.243 188.175 149.411 188.145 149.584C187.924 149.887 187.713 150.189 187.492 150.5C186.236 152.423 185.19 154.475 184.373 156.622C183.452 159.033 182.663 161.494 182.01 163.991C182.01 164.039 182.071 164.056 182.084 163.991C183.527 159.671 185 155.3 187.471 151.442C187.993 150.625 188.555 149.843 189.156 149.083C190.377 149.007 191.583 148.767 192.741 148.37C194.007 147.948 195.215 147.367 196.335 146.642C196.973 146.211 197.587 145.747 198.176 145.251C198.18 145.25 198.183 145.248 198.186 145.245C198.189 145.242 198.191 145.238 198.192 145.234C198.193 145.23 198.193 145.226 198.192 145.222C198.192 145.218 198.19 145.214 198.187 145.211C198.185 145.208 198.182 145.205 198.178 145.203C198.174 145.202 198.17 145.201 198.166 145.201C198.162 145.201 198.158 145.202 198.154 145.204C198.151 145.206 198.148 145.209 198.145 145.212C197.116 146.042 195.98 146.73 194.767 147.256C193.574 147.804 192.326 148.223 191.043 148.504C190.499 148.625 189.95 148.712 189.397 148.785C190.075 147.946 190.796 147.143 191.557 146.379C191.808 146.128 192.063 145.891 192.322 145.653C193.181 145.049 194.093 144.526 195.048 144.089C196.253 143.506 197.446 142.888 198.642 142.279C199.316 141.934 199.986 141.584 200.668 141.251C200.694 141.251 200.668 141.195 200.638 141.208C199.428 141.795 198.197 142.34 196.975 142.901C195.821 143.428 194.655 143.96 193.553 144.582L193.411 144.664C194.413 143.8 195.445 142.966 196.504 142.167C197.502 141.428 198.495 140.702 199.502 140.007Z" fill="#263238"/>
<path id="Vector_56" d="M199.083 143.808C198.482 144.072 197.873 144.305 197.277 144.582C196.681 144.858 196.089 145.204 195.51 145.545C195.505 145.548 195.501 145.553 195.5 145.558C195.498 145.564 195.499 145.57 195.502 145.575C195.504 145.58 195.509 145.584 195.515 145.586C195.521 145.588 195.527 145.587 195.532 145.584C196.124 145.303 196.715 145.04 197.299 144.746C197.882 144.452 198.487 144.124 199.096 143.856C199.126 143.856 199.113 143.796 199.083 143.808Z" fill="#263238"/>
<path id="Vector_57" d="M162.432 115.387C163.796 117.145 164.569 119.289 164.639 121.513C164.639 122.174 164.557 123.098 164.48 124.183C166.32 125.252 167.949 126.649 169.288 128.304C167.816 127.451 166.127 127.045 164.428 127.138C164.464 127.88 164.558 128.618 164.709 129.345C165.781 129.346 166.844 129.556 167.836 129.963C166.867 129.951 165.906 130.142 165.015 130.524C166.311 134.706 170.238 139 181.029 140.828C182.174 135.698 181.499 130.329 179.12 125.643C175.884 119.271 162.432 115.387 162.432 115.387Z" fill="#FF7C65"/>
<path id="Vector_58" d="M184.766 158.717C184.576 156.928 184.343 155.147 184.067 153.373C183.524 149.817 182.803 146.29 181.907 142.806C181.483 141.172 180.963 139.565 180.347 137.994C180.379 137.707 180.393 137.418 180.39 137.13C180.39 136.784 180.39 136.438 180.39 136.093C180.39 135.402 180.351 134.715 180.291 134.024C180.181 132.659 179.96 131.305 179.63 129.976C179.431 129.211 179.198 128.451 178.978 127.69C178.978 127.684 178.975 127.677 178.97 127.672C178.965 127.667 178.959 127.665 178.952 127.665C178.945 127.665 178.938 127.667 178.933 127.672C178.928 127.677 178.926 127.684 178.926 127.69C179.284 129.027 179.547 130.386 179.712 131.76C179.904 133.103 180.025 134.456 180.075 135.812C180.075 136.184 180.096 136.555 180.096 136.927C180.096 137.082 180.096 137.242 180.096 137.402C179.566 136.113 178.958 134.856 178.278 133.639C177.182 131.709 175.947 129.861 174.584 128.11C174.582 127.906 174.552 127.704 174.493 127.509C174.446 127.267 174.39 127.025 174.338 126.788C174.226 126.291 174.105 125.803 173.971 125.314C173.703 124.338 173.349 123.392 173.042 122.429C173.044 122.425 173.044 122.42 173.044 122.416C173.044 122.412 173.042 122.408 173.04 122.404C173.037 122.401 173.034 122.398 173.03 122.396C173.027 122.394 173.022 122.392 173.018 122.392C173.014 122.392 173.01 122.394 173.006 122.396C173.002 122.398 172.999 122.401 172.996 122.404C172.994 122.408 172.993 122.412 172.992 122.416C172.992 122.42 172.993 122.425 172.994 122.429C173.28 123.383 173.47 124.373 173.686 125.349C173.794 125.829 173.902 126.312 174.005 126.792L174.161 127.513C174.161 127.513 174.161 127.552 174.161 127.57C173.726 127.019 173.281 126.477 172.826 125.941C170.765 123.526 168.506 121.297 166.229 119.085C165.953 118.813 165.663 118.545 165.365 118.277C165.339 118.277 165.305 118.277 165.331 118.312C167.491 120.58 169.651 122.874 171.668 125.276C172.152 125.846 172.623 126.42 173.089 127.004C172.843 126.835 172.597 126.675 172.355 126.515C171.724 126.105 171.089 125.703 170.437 125.336C169.785 124.969 169.119 124.61 168.45 124.278C167.78 123.945 167.016 123.656 166.35 123.267C166.32 123.267 166.294 123.301 166.324 123.31C167.011 123.631 167.673 124.001 168.307 124.416C168.964 124.805 169.603 125.198 170.264 125.608C170.925 126.019 171.534 126.407 172.165 126.814C172.692 127.155 173.206 127.531 173.75 127.842C175 129.45 176.154 131.131 177.206 132.874C177.86 133.973 178.455 135.105 178.991 136.266L178.606 136.097L177.617 135.665L175.707 134.831C174.498 134.309 173.267 133.825 172.083 133.246C171.413 132.931 170.765 132.572 170.143 132.17C170.117 132.17 170.091 132.196 170.122 132.214C172.333 133.738 174.813 134.806 177.263 135.898L178.325 136.369C178.615 136.495 178.908 136.642 179.189 136.754C179.917 138.376 180.528 140.047 181.017 141.756C181.982 145.192 182.765 148.676 183.362 152.194C183.984 155.719 184.399 159.265 184.723 162.829C184.766 163.261 184.805 163.719 184.857 164.164C184.863 164.197 184.88 164.227 184.906 164.249C184.932 164.27 184.964 164.282 184.998 164.282C185.031 164.282 185.063 164.27 185.089 164.249C185.115 164.227 185.132 164.197 185.138 164.164C185.138 162.324 184.952 160.514 184.766 158.717Z" fill="#263238"/>
<path id="Vector_59" d="M178.2 128.913C178.001 127.816 177.707 126.753 177.414 125.669C177.414 125.639 177.357 125.669 177.366 125.669C177.638 126.723 177.833 127.799 178.031 128.866C178.23 129.933 178.412 131.051 178.567 132.153H178.597C178.525 131.067 178.392 129.985 178.2 128.913Z" fill="#263238"/>
<path id="Vector_60" d="M173.547 131.89C172.797 131.395 172.013 130.953 171.201 130.568C170.808 130.365 170.411 130.174 170.013 129.98C169.616 129.786 169.175 129.613 168.765 129.41C168.739 129.41 168.713 129.44 168.743 129.453C169.136 129.652 169.512 129.885 169.897 130.101L171.098 130.758C171.874 131.21 172.673 131.622 173.491 131.993C173.504 131.997 173.518 131.996 173.531 131.991C173.544 131.985 173.554 131.976 173.56 131.964C173.567 131.952 173.569 131.938 173.567 131.924C173.564 131.911 173.557 131.899 173.547 131.89Z" fill="#263238"/>
<path id="Vector_61" opacity="0.1" d="M186.525 139.782C186.525 139.782 193.346 138.154 196.482 133.574C199.476 129.203 200.439 121.746 200.517 121.094C200.396 121.694 198.988 128.209 194.34 131.242C190.784 133.566 187.345 135.479 186.525 139.782Z" fill="#263238"/>
<path id="Vector_62" d="M192.823 127.989C191.609 129.105 190.735 130.543 190.304 132.136C190.304 132.136 190.304 132.157 190.326 132.136C190.828 130.583 191.695 129.173 192.853 128.023C192.879 128.006 192.845 127.967 192.823 127.989Z" fill="#263238"/>
<path id="Vector_63" d="M186.525 139.782C186.525 139.782 193.346 138.154 196.482 133.574C199.476 129.203 200.439 121.746 200.517 121.094C200.519 121.078 200.519 121.062 200.517 121.046C200.517 121.046 197.247 125.699 193.804 126.887C190.361 128.075 185.535 132.192 186.525 139.782Z" fill="#FF7C65"/>
<path id="Vector_64" d="M199.316 123.612C198.705 124.866 198 126.072 197.208 127.22C196.411 128.309 195.466 129.282 194.4 130.11C193.471 130.844 192.49 131.514 191.553 132.235C191.552 132.224 191.552 132.212 191.553 132.201C191.73 131.937 191.916 131.686 192.11 131.436C192.503 130.939 192.931 130.464 193.359 130.002C194.223 129.082 195.087 128.179 195.834 127.181C196.255 126.63 196.621 126.04 196.927 125.418C196.927 125.388 196.893 125.375 196.88 125.418C195.774 127.725 193.562 129.202 191.985 131.151C191.76 131.428 191.549 131.716 191.354 132.015C191.198 132.232 191.066 132.465 190.961 132.71C190.096 133.402 189.315 134.192 188.633 135.065C188.692 134.616 188.784 134.173 188.909 133.738C189.067 133.131 189.31 132.55 189.631 132.01C189.631 131.985 189.605 131.954 189.587 131.985C189.255 132.527 188.988 133.107 188.793 133.713C188.649 134.191 188.566 134.686 188.546 135.186C188.209 135.644 187.9 136.123 187.622 136.62C187.652 136.473 187.678 136.33 187.708 136.188C187.842 135.51 187.993 134.831 188.17 134.158C188.493 132.791 189.048 131.491 189.812 130.313C189.812 130.287 189.786 130.261 189.769 130.287C188.986 131.448 188.373 132.715 187.95 134.05C187.734 134.719 187.557 135.397 187.406 136.084C187.334 136.421 187.265 136.758 187.198 137.095C187.164 137.272 187.129 137.449 187.099 137.631C186.422 139.117 185.895 140.667 185.527 142.258C184.855 145.103 184.369 147.989 184.071 150.898C183.72 153.923 183.562 156.967 183.6 160.013C183.6 160.397 183.626 160.782 183.647 161.166C183.647 161.266 183.803 161.278 183.807 161.166C183.872 159.65 183.915 158.142 184.002 156.622C184.088 155.101 184.226 153.598 184.386 152.086C184.698 149.121 185.172 146.176 185.807 143.264C186.36 140.767 187.103 138.257 188.443 136.071C189.121 134.984 189.95 133.997 190.905 133.142C191.864 132.278 192.91 131.531 193.929 130.736C194.951 129.962 195.879 129.07 196.694 128.079C197.523 126.976 198.246 125.797 198.854 124.558C199.014 124.247 199.178 123.941 199.342 123.63C199.372 123.612 199.329 123.582 199.316 123.612Z" fill="#263238"/>
<path id="Vector_65" d="M198.137 124.615C197.69 125.533 197.182 126.421 196.616 127.271C196.616 127.293 196.616 127.31 196.651 127.293C197.235 126.449 197.748 125.557 198.184 124.628C198.202 124.602 198.154 124.584 198.137 124.615Z" fill="#263238"/>
<path id="Vector_66" d="M161.477 136.763C161.477 136.763 161.369 146.448 167.184 149.26C172.999 152.073 176.092 149.731 180.032 150.669C179.88 150.435 177.068 146.392 172.593 145.282C167.97 144.128 162.864 140.806 161.477 136.763Z" fill="#FF7C65"/>
<path id="Vector_67" opacity="0.1" d="M161.477 136.763C161.477 136.763 161.369 146.448 167.184 149.26C172.999 152.073 176.092 149.731 180.032 150.669C177.951 149.676 175.726 149.018 173.439 148.72C169.776 148.28 162.773 145.895 161.477 136.763Z" fill="black"/>
<path id="Vector_68" d="M180.399 150.841C179.71 150.211 178.933 149.684 178.092 149.278C177.971 149.217 177.841 149.17 177.716 149.118L177.522 148.893C177.345 148.712 177.163 148.539 176.973 148.375C176.609 148.061 176.219 147.779 175.807 147.532C174.848 146.971 173.793 146.573 172.813 146.05C172.81 146.048 172.807 146.046 172.803 146.044C172.799 146.043 172.795 146.043 172.791 146.043C172.788 146.044 172.784 146.045 172.78 146.047C172.777 146.049 172.774 146.052 172.772 146.056C172.77 146.059 172.769 146.063 172.769 146.067C172.768 146.071 172.769 146.075 172.77 146.078C172.772 146.082 172.774 146.085 172.777 146.088C172.78 146.091 172.783 146.093 172.787 146.094C173.271 146.344 173.742 146.625 174.217 146.897C174.692 147.169 175.146 147.424 175.591 147.714C175.994 147.973 176.379 148.262 176.74 148.578C176.843 148.664 176.938 148.763 177.038 148.863C176.396 148.645 175.741 148.471 175.077 148.34C174.014 148.124 172.942 147.973 171.884 147.748C171.364 147.631 170.851 147.487 170.346 147.316C169.862 146.927 169.383 146.543 168.925 146.124C168.374 145.618 167.872 145.061 167.426 144.461C167.426 144.435 167.365 144.461 167.387 144.487C168.088 145.439 168.884 146.317 169.763 147.109C169.512 147.014 169.266 146.914 169.02 146.802C167.029 145.909 165.32 144.488 164.078 142.694C164.078 142.664 164.017 142.694 164.035 142.72C165.091 144.259 166.452 145.565 168.035 146.556C168.828 147.051 169.676 147.453 170.562 147.753C171.589 148.072 172.637 148.32 173.698 148.496C174.74 148.663 175.768 148.907 176.774 149.226C177.705 149.537 178.58 149.995 179.366 150.582C180.838 151.735 182.021 153.214 182.822 154.902C183.86 157.142 184.509 159.542 184.74 162C184.74 162.104 184.913 162.104 184.905 162C184.632 157.913 183.544 153.671 180.399 150.841Z" fill="#263238"/>
<path id="Vector_69" d="M173.664 147.679C173.361 147.226 172.951 146.854 172.472 146.595C171.922 146.308 171.44 145.909 171.055 145.424C171.055 145.398 170.994 145.424 171.011 145.45C171.36 145.894 171.784 146.275 172.264 146.573C172.792 146.852 173.256 147.235 173.629 147.701C173.664 147.744 173.685 147.701 173.664 147.679Z" fill="#263238"/>
<path id="Vector_70" d="M176.749 158L177.012 163.331L177.82 179.626H189.985L190.793 163.331L191.056 158H176.749Z" fill="#455A64"/>
<path id="Vector_71" d="M176.749 158L177.012 163.331H190.793L191.056 158H176.749Z" fill="#263238"/>
<path id="Vector_72" d="M175.893 160.864H191.912V155.775H175.893V160.864Z" fill="#455A64"/>
</g>
<g id="freepik--Chair--inject-120">
<path id="Vector_73" d="M18.6538 179.634H76.4381L64.9167 112.618H21.708L18.6538 179.634Z" fill="#FCF4F3"/>
<path id="Vector_74" d="M18.6538 179.634H23.7212L26.5637 112.618H21.708L18.6538 179.634Z" fill="#FFC7BD"/>
</g>
<g id="freepik--Character--inject-120">
<path id="Vector_75" d="M58.4841 73.7899C57.3781 73.9454 52.5354 73.4313 49.3516 77.855C46.3276 82.0454 45.3901 94.703 44.7637 97.4678C44.1373 100.233 40.5258 100.678 39.705 103.887C38.9965 106.648 41.001 107.641 41.2386 109.659C41.4114 111.223 39.8562 113.586 41.3077 115.893C42.6297 117.988 44.9106 117.517 46.2973 118.165C47.6841 118.813 48.574 122.001 51.1401 122.839C53.7061 123.677 55.9396 121.323 57.2961 121.323C58.6525 121.323 60.3201 125.47 64.7178 125.064C69.1156 124.658 70.3813 120.899 72.2044 120.148C74.0274 119.396 78.6196 120.619 80.6932 118.32C82.7668 116.022 83.0951 112.964 84.0282 111.84C84.9613 110.717 86.9313 110.873 88.0804 108.263C89.2295 105.654 86.7844 104.03 86.4388 101.783C86.1839 100.215 87.5663 98.7595 86.5641 96.3748C85.186 93.0916 81.1597 93.8347 79.5872 90.4651C78.3561 87.8212 75.7511 76.3084 68.7527 73.5307C63.9359 71.6083 58.4841 73.7899 58.4841 73.7899Z" fill="#263238"/>
<path id="Vector_76" d="M44.8892 96.8025C44.628 97.3883 44.2276 97.9015 43.7228 98.2972L42.2928 99.5543C41.3174 100.324 40.4677 101.241 39.7743 102.272C39.4538 102.764 39.2513 103.324 39.1823 103.908C39.1134 104.491 39.18 105.083 39.3768 105.637C39.6106 106.191 39.9283 106.705 40.3186 107.162C40.7695 107.659 41.1437 108.221 41.4288 108.829C41.603 109.522 41.5469 110.253 41.269 110.912C41.066 111.529 40.837 112.117 40.6772 112.709C40.3316 113.879 40.2452 115.128 40.8284 116.165C41.0907 116.683 41.5198 117.099 42.0466 117.344C42.6088 117.576 43.2098 117.699 43.8178 117.707C44.4399 117.746 45.0706 117.707 45.71 117.707C46.3526 117.653 46.9968 117.793 47.5589 118.109C46.9772 117.868 46.3393 117.796 45.7186 117.901C45.0879 117.949 44.4572 118.031 43.8135 118.048C43.1519 118.076 42.4914 117.973 41.8695 117.746C41.2247 117.489 40.6857 117.022 40.3402 116.42C39.5842 115.24 39.7008 113.733 40.0421 112.51C40.2063 111.879 40.4266 111.274 40.6037 110.683C40.823 110.167 40.873 109.595 40.7463 109.05C40.3575 108.043 39.2084 107.149 38.7634 105.84C38.5343 105.196 38.4637 104.507 38.5578 103.83C38.6518 103.153 38.9075 102.509 39.3034 101.952C40.0764 100.912 41.0113 100.004 42.0725 99.2606L43.6018 98.1287C44.1228 97.7862 44.5623 97.3335 44.8892 96.8025Z" fill="#263238"/>
<path id="Vector_77" d="M75.2629 79.9718C76.4898 81.8985 77.2588 84.0585 78.2265 86.0976C78.7146 87.1171 79.1639 88.1539 79.7169 89.1216C79.9746 89.597 80.2831 90.0432 80.637 90.4521C80.7103 90.5485 80.7994 90.6318 80.9005 90.6984C80.9935 90.7767 81.0967 90.8421 81.2073 90.8928C81.4449 91.018 81.6997 91.126 81.9546 91.234C83.0212 91.6515 84.0652 92.1245 85.0823 92.651C86.1565 93.1953 87.0362 94.0584 87.6009 95.122C87.873 95.6712 87.9994 96.2811 87.9681 96.8932C87.9121 97.4848 87.7419 98.0599 87.4669 98.5867C86.9485 99.6019 86.4604 100.617 86.4388 101.775C86.2876 100.626 86.7369 99.4852 87.1429 98.4484C87.3631 97.952 87.4877 97.4185 87.5101 96.876C87.5049 96.3498 87.3651 95.8338 87.1041 95.3769C86.5484 94.446 85.7352 93.6958 84.7626 93.2169C83.7549 92.721 82.7225 92.2769 81.6695 91.8864C81.406 91.7697 81.1425 91.6488 80.8789 91.5105C80.592 91.3589 80.3368 91.1536 80.1273 90.9057C79.7448 90.45 79.4145 89.953 79.1423 89.424C78.6022 88.4137 78.1261 87.3705 77.7167 86.3006L76.5114 83.1124C76.1588 82.0414 75.7418 80.9926 75.2629 79.9718Z" fill="#263238"/>
<path id="Vector_78" d="M85.1041 111.054C84.6246 111.711 84.5684 112.558 84.3956 113.339C84.2228 114.121 84.0673 114.934 83.8643 115.728C83.6694 116.538 83.3915 117.326 83.0348 118.079C82.6727 118.871 82.1225 119.564 81.4321 120.096C79.8942 121.098 78.0582 120.999 76.4684 120.727C75.6606 120.584 74.87 120.398 74.0751 120.295C73.2903 120.116 72.4741 120.128 71.6948 120.329C72.4522 119.987 73.2874 119.852 74.114 119.94C74.9348 119.997 75.7427 120.118 76.5419 120.191C78.1143 120.342 79.7905 120.351 81.0174 119.517C81.6156 119.059 82.098 118.467 82.4257 117.789C82.7867 117.083 83.0901 116.349 83.3329 115.595C83.5964 114.834 83.8167 114.052 84.05 113.275C84.1796 112.886 84.3092 112.497 84.4561 112.113C84.5724 111.708 84.7963 111.342 85.1041 111.054Z" fill="#263238"/>
<path id="Vector_79" d="M73.4745 123.409C82.7971 128.002 115.063 140.918 124.079 135.795C129.993 132.434 148.271 112.579 147.476 104.756C147.131 101.352 131.708 89.2382 129.552 92.1974C127.397 95.1566 113.249 111.637 110.769 112.838C108.289 114.039 78.2913 110.246 68.9904 110.972C52.9589 112.208 68.4547 120.96 73.4745 123.409Z" fill="#D3766A"/>
<path id="Vector_80" d="M122.571 96.5865L142.348 117.819C142.348 117.819 129.082 134.914 119.953 138.365C108.864 142.56 74.0794 126.39 68.688 123.444C59.8709 118.61 57.024 113.603 61.9272 111.326C63.8194 110.428 66.8909 109.953 71.2455 110.074C75.7944 110.186 103.352 112.575 110.471 111.434C114.48 110.795 122.571 96.5865 122.571 96.5865Z" fill="#FCF4F3"/>
<path id="Vector_81" d="M137.514 120.502C134.49 117.452 122.606 104.518 120.234 101.55C120.07 101.347 120.161 101.192 120.359 101.382C129.622 110.307 134.831 117.236 137.639 120.39C137.7 120.455 137.588 120.58 137.514 120.502Z" fill="#263238"/>
<path id="Vector_82" d="M87.3029 179.626C87.3029 179.626 30.564 179.626 30.3264 179.626C30.3264 179.626 30.4992 178.295 30.8319 176.567C30.8319 176.507 30.8319 176.45 30.8664 176.39C30.901 176.329 30.8664 176.368 30.8664 176.355C30.9139 176.105 30.9658 175.841 31.0176 175.56C31.2077 174.597 31.4496 173.474 31.6872 172.208C32.5901 167.776 33.912 161.646 35.5752 154.967C35.748 154.263 35.9295 153.554 36.1109 152.842C36.4824 151.386 36.8712 149.908 37.273 148.422C37.3378 148.193 37.3983 147.964 37.4631 147.735C37.4631 147.666 37.5019 147.597 37.5192 147.528C37.584 147.299 37.6445 147.07 37.7093 146.837C40.4871 136.823 43.9128 126.615 47.7447 119.686C48.8174 117.668 50.1223 115.784 51.6327 114.07C52.2721 113.369 52.9639 112.717 53.7019 112.121C53.905 111.961 54.1037 111.806 54.3024 111.659C54.5011 111.512 54.7344 111.365 54.9202 111.227C55.4714 110.858 56.049 110.531 56.6482 110.246C57.0786 110.04 57.5215 109.861 57.9744 109.711C58.2984 109.598 58.6224 109.508 58.9421 109.43C61.3761 108.823 63.9474 109.116 66.1824 110.255C66.6752 110.511 67.15 110.799 67.6037 111.119C67.7117 111.197 67.8197 111.275 67.9234 111.357C68.4191 111.731 68.8869 112.141 69.3231 112.583L69.4527 112.722C69.6989 113.003 70.1395 113.551 70.7184 114.303C71.4701 115.275 72.4464 116.597 73.5739 118.13C73.9714 118.675 74.3803 119.243 74.8008 119.837L74.9131 119.997C75.0341 120.161 75.1507 120.329 75.2674 120.498C75.9499 121.461 76.6498 122.476 77.3496 123.522C77.881 124.304 78.4123 125.103 78.9351 125.906C79.6479 126.995 80.3434 128.092 81.0043 129.177C82.5049 131.555 83.8151 134.048 84.9226 136.633C85.1567 137.211 85.353 137.804 85.5101 138.408C85.5267 138.465 85.5397 138.523 85.549 138.581C85.549 138.633 85.5749 138.689 85.5879 138.741C85.7556 139.574 85.8381 140.423 85.8341 141.273C85.8278 142.404 85.7077 143.531 85.4755 144.638L85.4367 144.832C84.9875 146.889 84.2867 148.883 83.3501 150.768C83.3487 150.778 83.3487 150.788 83.3501 150.798L83.1989 151.096C83.0391 151.394 82.944 151.559 82.944 151.559V151.615L83.0304 152.198L84.1018 159.542L85.6699 170.342L87.3029 179.626Z" fill="#FF7C65"/>
<path id="Vector_83" d="M28.4041 179.626C28.5941 178.589 28.7842 177.552 28.9786 176.528C28.9786 176.502 28.9786 176.472 28.9786 176.446V176.373C29.0261 176.118 29.0737 175.863 29.1255 175.608C30.3265 169.448 31.5361 163.542 32.8321 158.134C32.9833 157.473 33.1388 156.816 33.2943 156.172C33.8689 153.792 34.4477 151.52 35.0223 149.377C35.0482 149.291 35.0698 149.204 35.0957 149.118C35.1433 148.941 35.1908 148.764 35.2426 148.591C35.3161 148.314 35.3938 148.042 35.4716 147.774C36.2233 145.135 36.9836 142.716 37.7482 140.564C41.3122 130.555 44.6602 123.841 47.5028 119.344C49.6973 115.888 51.6068 113.728 53.1188 112.385C53.5432 112 53.9904 111.641 54.458 111.309L54.566 111.236C55.9095 110.311 56.6698 110.212 56.6698 110.212V110.246C56.6698 110.307 56.6698 110.441 56.6698 110.648C56.6698 111.08 59.5167 124.848 59.5556 126.529C59.642 130.261 62.7956 176.9 62.8345 179.63C62.8345 179.634 28.4041 179.626 28.4041 179.626Z" fill="#FCF4F3"/>
<path id="Vector_84" d="M87.696 179.626H76.3992C76.3992 179.595 76.3992 179.561 76.3992 179.531C76.032 175.768 75.6734 172.04 75.3278 168.381C75.3019 168.147 75.2803 167.918 75.2587 167.685C75.0341 165.335 74.8267 163.011 74.5977 160.734C74.5977 160.652 74.5977 160.57 74.5977 160.488C74.304 157.399 74.0189 154.388 73.7337 151.476C73.7337 151.387 73.7251 151.296 73.7078 151.204C73.4141 148.085 73.1333 145.087 72.8697 142.236C72.8697 142.175 72.8697 142.119 72.8697 142.059V141.903C72.6149 139.19 72.3254 136.603 72.0057 134.162C71.5478 130.555 71.0553 127.271 70.5715 124.39C70.4333 123.561 70.2965 122.766 70.1611 122.005C70.1352 121.863 70.1093 121.725 70.0877 121.573C69.1632 116.437 68.3597 112.972 68.0702 111.78C68.0227 111.577 67.9881 111.443 67.9709 111.374C67.97 111.36 67.97 111.345 67.9709 111.331C68.4971 111.67 68.969 112.086 69.3705 112.566L69.5001 112.704C69.8544 113.089 70.2432 113.538 70.6709 114.048C71.5349 115.059 72.4853 116.299 73.5177 117.69C74.0246 118.369 74.5416 119.078 75.0686 119.815L75.2069 120.005L75.5784 120.532C76.667 122.075 77.7773 123.716 78.8486 125.366L79.2461 125.993C79.9416 127.077 80.6112 128.153 81.2419 129.228C82.6919 131.587 83.9488 134.059 85.0003 136.62C85.2262 137.194 85.4124 137.783 85.5576 138.383C85.5742 138.439 85.5872 138.497 85.5965 138.555C85.5965 138.65 85.6353 138.741 85.6526 138.832C85.7906 139.63 85.8672 140.437 85.8816 141.247C85.9043 142.379 85.8146 143.51 85.6137 144.625C85.6137 144.711 85.5835 144.798 85.5705 144.88C85.1666 146.953 84.4159 148.944 83.3501 150.768C83.3486 150.778 83.3486 150.788 83.3501 150.798L83.1902 151.049V151.096L83.2809 151.671L83.363 152.198L84.4689 159.175L87.1992 176.355L87.696 179.626Z" fill="#FCF4F3"/>
<path id="Vector_85" d="M87.5276 179.626H87.3029C87.074 178.368 86.8191 177.12 86.5944 175.863C86.2661 174.027 85.9594 172.191 85.6613 170.346C85.6354 170.199 85.6138 170.048 85.5879 169.914C85.0349 166.488 84.5381 163.054 84.0413 159.62L83.7821 157.827C83.5143 155.956 83.2248 154.081 82.9829 152.211C82.957 152.016 82.9311 151.818 82.9095 151.623L82.8317 150.98C82.8058 150.729 83.834 149.1 84.1277 148.478C84.5337 147.634 84.8661 146.757 85.1213 145.856C85.2207 145.506 85.3114 145.152 85.3805 144.793C85.3931 144.745 85.4032 144.696 85.4108 144.647C85.7025 143.189 85.7667 141.695 85.6008 140.219C85.4538 138.98 85.1639 137.762 84.7368 136.59C83.8728 134.145 82.5077 131.864 81.1383 129.678L80.7624 129.082C80.0756 127.989 79.38 126.9 78.6888 125.811C78.2309 125.086 77.7773 124.36 77.328 123.625C77.3239 123.617 77.3216 123.608 77.3213 123.599C77.3211 123.59 77.3229 123.581 77.3266 123.573C77.3304 123.565 77.3359 123.557 77.3429 123.551C77.3499 123.545 77.3581 123.541 77.3669 123.539C77.3747 123.532 77.3847 123.529 77.395 123.529C77.4053 123.529 77.4153 123.532 77.4231 123.539C77.8896 124.152 78.3548 124.77 78.8184 125.392L79.3109 126.058C79.9272 126.901 80.5421 127.745 81.1556 128.589C80.8402 127.881 80.5292 127.168 80.2354 126.429C80.149 126.23 80.0712 126.027 79.9892 125.824C79.946 125.721 80.0972 125.63 80.1447 125.738C80.2743 126.006 80.3996 126.278 80.5205 126.55C80.9525 127.479 81.3327 128.421 81.7215 129.362L81.8122 129.492C82.8671 130.972 83.8059 132.532 84.6202 134.158C85.0509 135.037 85.4176 135.947 85.7175 136.879C86.5751 139.4 86.7846 142.097 86.3266 144.72C86.2834 144.975 86.2272 145.23 86.1668 145.485C86.1687 145.505 86.1687 145.525 86.1668 145.545C85.9107 146.592 85.5368 147.606 85.0522 148.569C84.7152 149.239 83.6309 150.69 83.6309 150.729L83.8124 151.762C83.834 151.883 83.8512 152.008 83.8728 152.129C84.24 154.289 84.5597 156.488 84.8708 158.669C85.0608 160.017 85.2466 161.365 85.4367 162.708C86.0026 166.752 86.5772 170.791 87.048 174.848C87.1042 175.336 87.156 175.824 87.2079 176.312C87.3029 177.444 87.4066 178.537 87.5276 179.626Z" fill="#263238"/>
<path id="Vector_86" d="M68.0312 111.784C69.3676 113.8 70.724 115.809 72.1007 117.811C73.4917 119.794 74.8525 121.802 76.2652 123.768L76.2954 123.297L72.8956 126.861L72.6148 127.155L72.9129 127.444C74.3428 128.831 75.8029 130.192 77.2545 131.557L77.1335 131.203C76.6065 134.896 76.0405 138.581 75.5696 142.283C75.0988 145.986 74.6063 149.684 74.1959 153.395C74.9001 149.727 75.5437 146.051 76.1572 142.374C76.7706 138.698 77.3495 135.009 77.9327 131.324L77.9672 131.116L77.8117 130.969C76.3732 129.591 74.9432 128.205 73.4917 126.844V127.427L76.8268 123.803L77.0341 123.578L76.857 123.332C75.4271 121.375 73.941 119.444 72.4852 117.526C71.0293 115.607 69.5519 113.685 68.0312 111.784Z" fill="#A6A6A6"/>
<path id="Vector_87" d="M45.8351 120.899C31.6871 140.888 22.8095 170.696 31.497 176.195C37.2685 179.842 49.2392 146.819 48.8332 146.984C47.9692 147.338 51.1012 135.994 54.9848 122.23C59.3178 106.868 53.9178 109.473 45.8351 120.899Z" fill="#D3766A"/>
<path id="Vector_88" d="M52.907 111.992C41.9602 120.528 21.7555 160.423 29.1514 174.727C35.1475 186.322 50.3798 146.845 49.991 146.379C49.6022 145.912 53.8142 130.732 55.5336 124.554C57.253 118.377 58.752 107.451 52.907 111.992Z" fill="#FCF4F3"/>
<path id="Vector_89" d="M53.4471 135.441C53.0799 136.076 52.717 136.706 52.3758 137.359C52.3153 137.48 52.2591 137.605 52.1986 137.726C52.2764 137.402 52.3498 137.078 52.4276 136.754C52.7394 135.625 52.9917 134.48 53.1836 133.324C53.184 133.313 53.1806 133.302 53.174 133.293C53.1673 133.284 53.1578 133.278 53.1471 133.276C53.1364 133.273 53.1251 133.274 53.1152 133.279C53.1053 133.284 53.0974 133.292 53.0929 133.302C52.6826 134.451 52.3336 135.62 52.0474 136.806C51.7234 137.951 51.3951 139.095 51.097 140.262C50.799 141.428 50.4793 142.569 50.1985 143.718C49.8828 144.852 49.646 146.007 49.49 147.174C49.491 147.187 49.4961 147.199 49.5045 147.208C49.5129 147.218 49.5242 147.225 49.5367 147.228C49.5492 147.231 49.5623 147.229 49.5741 147.224C49.5859 147.219 49.5958 147.211 49.6023 147.2C50.0496 146.065 50.4148 144.9 50.6953 143.713C51.0063 142.564 51.2914 141.407 51.5895 140.257C51.7148 139.778 51.8314 139.29 51.9481 138.806L52.1295 138.465C52.3023 138.154 52.4578 137.83 52.609 137.51C52.9201 136.84 53.2052 136.166 53.473 135.484C53.4946 135.441 53.4601 135.423 53.4471 135.441Z" fill="#263238"/>
<path id="Vector_90" d="M56.7821 111.503C56.0045 113.735 55.2039 115.96 54.3802 118.178C53.5464 120.385 52.7472 122.61 51.8832 124.805L51.758 124.373L55.5639 127.202L55.8792 127.436L55.6719 127.777C54.6739 129.41 53.6501 131.021 52.6479 132.637L52.6824 132.265C53.9266 135.773 55.2096 139.268 56.4063 142.798C57.6029 146.327 58.8255 149.848 59.9703 153.395C58.5706 149.939 57.2127 146.472 55.8965 142.996C54.5487 139.54 53.3045 136.028 51.9826 132.538L51.9135 132.343L52.0215 132.166C53.0237 130.542 54.0216 128.909 55.0455 127.297L55.1535 127.872L51.3908 124.973L51.1575 124.792L51.2655 124.52C52.1295 122.329 53.0799 120.169 53.9828 117.996C54.8856 115.823 55.8231 113.651 56.7821 111.503Z" fill="#A6A6A6"/>
<path id="Vector_91" d="M54.7474 115.344C54.4493 110.886 58.0911 109.296 61.4305 108.864C65.3919 108.328 68.0271 108.665 69.9236 112.506C71.9194 116.554 72.9476 121.254 73.7425 125.686C73.8893 126.511 75.181 126.308 75.0385 125.479C74.1399 120.372 72.8525 110.851 67.7722 108.069C63.098 105.512 52.9589 108.013 53.4601 115.573C53.5162 116.411 54.8036 116.199 54.7561 115.366L54.7474 115.344Z" fill="#455A64"/>
<path id="Vector_92" d="M77.7601 127.526C77.8543 128.112 77.7728 128.712 77.5258 129.251C77.2788 129.79 76.8774 130.244 76.3725 130.555C75.8675 130.866 75.2817 131.021 74.689 130.999C74.0964 130.977 73.5236 130.779 73.0431 130.432C72.5625 130.084 72.1959 129.602 71.9895 129.046C71.783 128.49 71.7462 127.885 71.8835 127.309C72.0208 126.732 72.3261 126.208 72.7608 125.805C73.1955 125.402 73.7401 125.136 74.3257 125.042C75.1103 124.918 75.9123 125.109 76.5561 125.575C77.1998 126.04 77.6327 126.742 77.7601 127.526Z" fill="#263238"/>
<path id="Vector_93" d="M76.5589 127.716C76.6152 128.069 76.5656 128.431 76.4164 128.755C76.2671 129.08 76.0249 129.353 75.7205 129.54C75.416 129.727 75.0629 129.819 74.7059 129.805C74.3489 129.792 74.004 129.672 73.7149 129.462C73.4258 129.252 73.2054 128.962 73.0817 128.626C72.958 128.291 72.9365 127.927 73.0199 127.579C73.1033 127.232 73.2879 126.917 73.5502 126.675C73.8126 126.432 74.1411 126.273 74.494 126.217C74.9665 126.143 75.4494 126.259 75.8366 126.54C76.2237 126.821 76.4835 127.244 76.5589 127.716Z" fill="#FCF4F3"/>
<path id="Vector_94" d="M59.253 129.332C62.5319 141.86 62.0178 144.932 60.981 146.37C60.1946 147.377 59.1863 148.189 58.0348 148.742L57.6589 147.912L57.849 148.344L57.6589 147.912C58.6664 147.423 59.5519 146.714 60.2509 145.839C61.0069 144.798 61.6333 141.977 58.389 129.565L59.253 129.332Z" fill="#C7C7C7"/>
<path id="Vector_95" d="M56.0714 148.718L56.5448 149.577C56.6727 149.809 56.9644 149.893 57.1963 149.766L59.1143 148.708C59.3462 148.58 59.4306 148.289 59.3027 148.057L58.8293 147.198C58.7014 146.966 58.4097 146.882 58.1778 147.009L56.2598 148.067C56.0279 148.195 55.9435 148.487 56.0714 148.718Z" fill="#263238"/>
<path id="Vector_96" d="M51.0754 129.63C48.5698 139.074 47.9606 144.24 49.153 145.899C49.8478 146.781 50.7342 147.493 51.745 147.982L51.3648 148.811C50.2167 148.252 49.2119 147.438 48.4272 146.431C47.0059 144.456 47.52 139.519 50.207 129.397L51.0754 129.63Z" fill="#C7C7C7"/>
<path id="Vector_97" d="M50.0689 148.128L50.5432 147.275C50.605 147.164 50.7084 147.082 50.8307 147.047C50.953 147.012 51.0842 147.027 51.1953 147.089L53.1097 148.153C53.2218 148.216 53.3046 148.32 53.3398 148.443C53.375 148.567 53.3598 148.699 53.2975 148.811L52.8231 149.665C52.7925 149.72 52.7514 149.768 52.702 149.807C52.6527 149.846 52.5961 149.875 52.5356 149.893C52.475 149.91 52.4117 149.915 52.3491 149.908C52.2865 149.901 52.226 149.881 52.171 149.851L50.2567 148.786C50.2007 148.756 50.1514 148.715 50.1116 148.665C50.0717 148.615 50.0422 148.558 50.0247 148.497C50.0073 148.436 50.0022 148.371 50.0097 148.308C50.0173 148.245 50.0374 148.184 50.0689 148.128Z" fill="#263238"/>
<path id="Vector_98" d="M49.8829 129.004C50.2999 126.914 50.8452 124.853 51.5159 122.831C51.9139 121.936 52.545 121.164 53.3433 120.597C53.5247 120.597 53.4513 118.986 53.3433 117.685C53.2612 116.541 53.1445 115.206 53.4167 114.839C53.5757 114.667 53.7953 114.565 54.0286 114.554C54.2619 114.543 54.4904 114.623 54.6652 114.778C54.9805 115.115 54.9935 116.454 55.0324 117.603C55.0713 118.899 55.1577 120.498 55.3391 120.493C56.1426 121.017 56.808 121.727 57.2788 122.563C58.1549 124.561 58.877 126.623 59.4388 128.732C59.7282 130.075 59.2876 130.239 58.9031 130.373C58.3588 130.559 58.0132 130.183 57.6071 128.697C56.9332 126.343 56.0865 122.377 54.4492 122.386C52.8205 122.545 52.1553 126.744 51.6282 129.082C51.2956 130.546 50.9889 130.689 50.4273 130.559C50.0255 130.464 49.6194 130.3 49.8829 129.004Z" fill="#263238"/>
<path id="Vector_99" d="M88.5255 67.2321L85.7434 131.224L136.819 124.489L139.605 60.4973L88.5255 67.2321Z" fill="#37474F"/>
<path id="Vector_100" opacity="0.2" d="M94.3574 97.0272C94.7332 103.209 96.9494 106.605 97.6622 108.583C98.375 110.562 101.55 115.443 101.55 115.694C101.55 115.944 98.5607 129.518 98.5607 129.518L121.198 126.533C121.198 126.533 120.8 119.388 120.969 118.705C121.137 118.022 126.006 108.125 127.647 103.827C129.289 99.5285 132.248 86.292 132.049 81.5832C131.851 76.8744 127.297 77.7211 126.377 81.3327C125.634 84.1925 122.688 94.4568 122.36 94.3791C122.031 94.3013 124.088 79.6435 123.418 74.317C122.748 68.9904 118.143 70.8998 117.638 75.0773C117.132 79.2547 116.234 93.109 116.035 93.0744C115.836 93.0399 115.003 77.5786 114.199 73.3795C113.396 69.1805 108.225 70.105 108.047 74.9736C107.87 79.8423 109.089 94.4482 108.89 94.3099C108.691 94.1717 106.903 84.4387 105.218 79.4059C103.533 74.3731 98.5953 77.0429 99.2735 82.1535C99.9518 87.264 104.25 102.306 104.026 102.259C103.801 102.211 101.485 97.9387 100.531 93.9298C99.5759 89.9208 93.9772 90.841 94.3574 97.0272Z" fill="white"/>
<path id="Vector_101" d="M106.117 108.704C106.225 107.901 105.361 108.073 104.859 107.52C104.358 106.967 102.812 105.559 102.764 105.058C102.717 104.557 102.764 103.835 102.095 103.594C101.624 103.416 101.105 103.93 100.76 104.19C100.414 104.449 100.012 105.054 100.146 105.52C100.358 106.246 101.149 106.19 101.218 106.302C101.287 106.415 103.257 108.536 103.46 108.86C103.663 109.184 103.369 110.588 104.302 110.626C104.937 110.648 105.136 110.367 105.481 110.017C105.671 109.853 105.826 109.652 105.935 109.427C106.044 109.201 106.106 108.955 106.117 108.704Z" fill="white"/>
<path id="Vector_102" d="M109.866 104.043C110.259 103.291 109.434 103.114 109.231 102.367C108.985 101.542 108.203 99.6106 108.367 99.0965C108.531 98.5824 108.799 97.8783 108.337 97.3685C108 97.0099 107.365 97.3123 106.967 97.4333C106.719 97.5105 106.495 97.6498 106.316 97.8381C106.137 98.0264 106.009 98.2573 105.944 98.509C105.853 99.3082 106.553 99.5674 106.574 99.7056C106.596 99.8439 107.49 102.73 107.542 103.131C107.594 103.533 106.816 104.816 107.607 105.218C108.143 105.494 108.419 105.296 108.847 105.084C109.077 104.986 109.285 104.844 109.46 104.665C109.635 104.487 109.773 104.275 109.866 104.043Z" fill="white"/>
<path id="Vector_103" d="M113.819 103.213C114.398 102.501 113.638 102.099 113.603 101.226C113.564 100.263 113.27 97.956 113.547 97.4376C113.823 96.9192 114.29 96.2323 113.949 95.567C113.702 95.0832 112.994 95.243 112.571 95.2689C112.295 95.2914 112.03 95.3858 111.803 95.5427C111.576 95.6997 111.393 95.9136 111.275 96.1632C110.981 97.0272 111.616 97.4592 111.599 97.632C111.581 97.8048 111.754 101.161 111.707 101.611C111.659 102.06 110.557 103.248 111.244 103.892C111.711 104.324 112.035 104.19 112.514 104.077C112.78 104.031 113.032 103.93 113.257 103.782C113.481 103.633 113.673 103.439 113.819 103.213Z" fill="white"/>
<path id="Vector_104" d="M103.52 90.4954C103.464 91.2902 104.181 91.5192 104.203 91.6531C104.203 91.6834 104.268 91.8562 104.354 92.1067L106.544 92.9707C106.225 92.1672 105.901 91.2902 105.983 90.9619C106.108 90.4435 106.376 89.735 105.879 89.2598C105.525 88.9186 104.898 89.2598 104.505 89.3851C104.261 89.4721 104.042 89.6194 103.87 89.8136C103.698 90.0077 103.577 90.2422 103.52 90.4954Z" fill="white"/>
<path id="Vector_105" d="M105.516 97.3771C106.116 97.5196 106.354 97.2777 106.747 96.9883C106.964 96.8548 107.152 96.6795 107.3 96.4725C107.449 96.2656 107.554 96.0312 107.611 95.783C107.862 94.9881 107.006 94.9881 106.635 94.3315C106.484 94.0636 106.233 93.6705 105.978 93.2558L103.624 92.7892C104.056 93.5539 104.954 95.1264 105.054 95.4115C105.175 95.783 104.639 97.1568 105.516 97.3771Z" fill="white"/>
<path id="Vector_106" d="M113.711 93.8822C114.242 93.1348 113.439 92.8022 113.335 91.9468C113.223 91.0051 112.743 88.763 112.977 88.2273C113.21 87.6916 113.633 86.9831 113.236 86.3567C112.951 85.9031 112.247 86.1191 111.819 86.1796C111.545 86.2243 111.288 86.3388 111.071 86.5121C110.855 86.6854 110.687 86.9116 110.583 87.1689C110.359 88.0329 111.015 88.4303 111.015 88.5815C111.015 88.7327 111.447 92.0375 111.447 92.4695C111.447 92.9015 110.419 94.1759 111.162 94.7548C111.672 95.1479 111.987 94.9795 112.458 94.8283C112.72 94.7634 112.966 94.6462 113.182 94.4836C113.397 94.321 113.577 94.1164 113.711 93.8822Z" fill="white"/>
<path id="Vector_107" d="M105.347 87.8083C105.754 87.0609 104.95 86.8708 104.743 86.1148C104.509 85.2811 103.879 84.0326 104.017 83.5228C104.155 83.0131 104.475 82.3089 104.017 81.7948C103.684 81.4276 103.045 81.7171 102.652 81.8337C102.402 81.9057 102.175 82.0409 101.992 82.2263C101.81 82.4118 101.679 82.6411 101.611 82.8921C101.507 83.6957 102.198 83.9678 102.215 84.1061C102.233 84.2443 102.98 86.4561 103.023 86.8579C103.067 87.2596 102.272 88.5384 103.054 88.9531C103.585 89.2382 103.861 89.0438 104.289 88.8408C104.526 88.7494 104.742 88.6108 104.924 88.4333C105.106 88.2558 105.25 88.0431 105.347 87.8083Z" fill="white"/>
<path id="Vector_108" d="M112.951 84.9225C113.486 84.1794 112.692 83.8338 112.596 82.9785C112.488 82.0324 112.035 79.786 112.277 79.2503C112.519 78.7146 112.942 78.0105 112.553 77.3798C112.268 76.9218 111.564 77.1292 111.136 77.1897C110.863 77.2312 110.605 77.343 110.387 77.5142C110.17 77.6853 110.001 77.9099 109.896 78.166C109.659 79.03 110.328 79.4318 110.328 79.5873C110.328 79.7428 110.726 83.0433 110.709 83.4969C110.691 83.9505 109.668 85.1947 110.402 85.7822C110.907 86.1839 111.223 86.0154 111.698 85.8686C111.961 85.8054 112.207 85.6888 112.423 85.526C112.638 85.3633 112.818 85.1578 112.951 84.9225Z" fill="white"/>
<path id="Vector_109" d="M118.178 104.345C118.882 103.779 118.286 103.175 118.467 102.289C118.666 101.317 118.96 98.9237 119.331 98.4744C119.703 98.0251 120.303 97.4592 120.156 96.7032C120.048 96.1545 119.357 96.1286 118.96 96.0465C118.697 96.0014 118.428 96.0301 118.18 96.1292C117.933 96.2284 117.719 96.3942 117.56 96.6081C117.085 97.3814 117.56 98.0165 117.5 98.1677C117.439 98.3189 116.778 101.749 116.636 102.185C116.493 102.622 115.184 103.533 115.655 104.345C115.979 104.911 116.307 104.851 116.778 104.859C117.035 104.882 117.294 104.848 117.535 104.759C117.777 104.67 117.997 104.529 118.178 104.345Z" fill="white"/>
<path id="Vector_110" d="M120.424 95.1177C121.051 94.4567 120.346 93.9815 120.39 93.1003C120.437 92.1326 120.351 89.7911 120.666 89.2943C120.982 88.7975 121.496 88.1582 121.223 87.4583C121.025 86.9486 120.321 87.0263 119.906 87.0263C119.634 87.0249 119.367 87.0963 119.132 87.233C118.898 87.3698 118.704 87.5669 118.571 87.8039C118.212 88.6247 118.787 89.1518 118.761 89.3073C118.735 89.4628 118.601 92.8583 118.515 93.3076C118.428 93.7569 117.258 94.8412 117.867 95.554C118.299 96.0422 118.61 95.9255 119.085 95.8564C119.348 95.8349 119.603 95.7579 119.834 95.6306C120.065 95.5032 120.266 95.3284 120.424 95.1177Z" fill="white"/>
<path id="Vector_111" d="M121.223 85.847C121.833 85.1645 121.102 84.7195 121.111 83.8469C121.111 82.8835 121.007 81.0216 121.306 80.5161C121.604 80.0107 122.092 79.3497 121.794 78.6672C121.573 78.1747 120.869 78.2957 120.45 78.3C120.181 78.3114 119.919 78.3937 119.691 78.5385C119.464 78.6834 119.279 78.8857 119.154 79.1251C118.826 79.9545 119.422 80.4557 119.4 80.6069C119.379 80.7581 119.318 83.687 119.245 84.132C119.171 84.5769 118.04 85.7088 118.683 86.3913C119.115 86.8579 119.444 86.7283 119.919 86.6419C120.179 86.6069 120.43 86.5181 120.654 86.3813C120.879 86.2445 121.073 86.0625 121.223 85.847Z" fill="white"/>
<path id="Vector_112" d="M121.751 106.151C122.468 105.831 122.131 105.132 122.498 104.384C122.904 103.559 123.479 101.766 123.902 101.464C124.325 101.161 124.943 100.807 125.012 100.09C125.064 99.5673 124.511 99.36 124.209 99.1829C124.009 99.0714 123.779 99.0241 123.551 99.0472C123.323 99.0704 123.108 99.163 122.934 99.3125C122.355 99.8827 122.576 100.578 122.502 100.699C122.429 100.82 121.284 103.447 121.051 103.801C120.817 104.155 119.539 104.626 119.712 105.494C119.833 106.086 120.118 106.121 120.493 106.255C120.696 106.341 120.916 106.376 121.135 106.358C121.354 106.34 121.565 106.269 121.751 106.151Z" fill="white"/>
<path id="Vector_113" d="M125.764 98.3188C126.347 97.8566 125.859 97.3598 126.01 96.6297C126.178 95.8305 126.334 94.4438 126.649 94.0766C126.965 93.7094 127.453 93.2428 127.336 92.6207C127.25 92.1671 126.684 92.1455 126.356 92.0764C126.14 92.038 125.917 92.0605 125.714 92.1414C125.51 92.2223 125.333 92.3583 125.202 92.5343C124.809 93.1694 125.202 93.6921 125.146 93.8303C125.09 93.9686 124.632 96.1934 124.507 96.5519C124.381 96.9105 123.31 97.6579 123.694 98.3404C123.954 98.8027 124.226 98.7724 124.61 98.7724C124.824 98.7888 125.039 98.7565 125.239 98.678C125.439 98.5994 125.618 98.4766 125.764 98.3188Z" fill="white"/>
<path id="Vector_114" d="M127.755 91.2384C128.339 90.7805 127.855 90.2793 128.01 89.5493C128.187 88.7501 128.416 87.1733 128.732 86.8061C129.047 86.4389 129.544 85.9809 129.427 85.3545C129.345 84.9009 128.779 84.875 128.455 84.8016C128.242 84.7583 128.021 84.7758 127.817 84.8522C127.613 84.9286 127.434 85.0607 127.302 85.2336C126.904 85.8643 127.28 86.3913 127.237 86.5296C127.194 86.6678 126.641 89.0784 126.511 89.4413C126.382 89.8041 125.306 90.5342 125.686 91.2211C125.945 91.6877 126.217 91.6531 126.602 91.6531C126.813 91.6738 127.026 91.6473 127.225 91.5756C127.425 91.5039 127.606 91.3887 127.755 91.2384Z" fill="white"/>
<path id="Vector_115" d="M101.222 102.691C101.55 101.913 100.717 101.827 100.423 101.11C100.094 100.328 99.386 99.3211 99.4853 98.8027C99.5847 98.2843 99.818 97.5672 99.2953 97.1265C98.9194 96.8068 98.306 97.1611 97.9172 97.3209C97.6764 97.4186 97.4642 97.5756 97.3003 97.7773C97.1364 97.9789 97.0262 98.2187 96.9797 98.4744C96.9797 99.2692 97.6969 99.455 97.7271 99.5846C97.7573 99.7142 98.6775 101.65 98.7682 102.038C98.8589 102.427 98.1937 103.766 99.0274 104.073C99.5977 104.289 99.8569 104.073 100.272 103.818C100.497 103.703 100.697 103.544 100.861 103.35C101.024 103.157 101.147 102.932 101.222 102.691Z" fill="white"/>
<path id="Vector_116" d="M117.936 111.555C119.124 111.439 120.377 108.635 119.824 107.404C119.115 105.81 115.344 107.313 114.709 108.868C114.221 110.069 115.348 109.3 116.316 110.268C117.033 110.976 117.379 111.616 117.936 111.555Z" fill="white"/>
<path id="Vector_117" d="M115.733 105.732C115.128 104.73 111.413 105.062 109.685 105.87C108.674 106.341 107.093 107.978 107.093 108.717C107.093 109.456 108.035 110.717 108.821 110.445C109.989 110.106 111.18 109.852 112.385 109.685C113.901 109.555 116.238 106.579 115.733 105.732Z" fill="white"/>
<path id="Vector_118" d="M129.319 84.3523C129.423 84.3009 129.514 84.2286 129.588 84.14C129.662 84.0514 129.717 83.9484 129.749 83.8376C129.781 83.7267 129.79 83.6104 129.774 83.496C129.759 83.3816 129.72 83.2716 129.661 83.1729C129.522 82.9569 130.019 81.3974 129.453 81.2765C128.887 81.1555 128.697 82.5725 128.343 82.9094C127.989 83.2464 127.544 83.9246 128.071 84.2616C128.259 84.3686 128.469 84.4323 128.685 84.448C128.901 84.4637 129.118 84.431 129.319 84.3523Z" fill="white"/>
<path id="Vector_119" d="M121.293 77.5353C121.396 77.4582 121.482 77.3594 121.544 77.2457C121.606 77.132 121.642 77.0062 121.65 76.8771C121.659 76.748 121.639 76.6186 121.592 76.498C121.545 76.3774 121.472 76.2685 121.379 76.1788C121.159 75.9887 121.323 74.1873 120.632 74.2175C119.94 74.2478 120.096 75.7987 119.768 76.2695C119.439 76.7404 119.111 77.5655 119.811 77.7859C120.062 77.8473 120.323 77.8567 120.578 77.8136C120.832 77.7705 121.076 77.6758 121.293 77.5353Z" fill="white"/>
<path id="Vector_120" d="M111.84 76.3171C111.947 76.2422 112.035 76.1441 112.099 76.0303C112.162 75.9165 112.199 75.7898 112.206 75.6598C112.214 75.5297 112.192 75.3997 112.142 75.2794C112.092 75.159 112.016 75.0515 111.918 74.9649C111.698 74.7792 111.849 72.9777 111.154 73.0123C110.458 73.0468 110.631 74.5934 110.32 75.0686C110.009 75.5438 109.672 76.3646 110.372 76.5806C110.622 76.6393 110.881 76.6462 111.133 76.6009C111.386 76.5556 111.627 76.459 111.84 76.3171Z" fill="white"/>
<path id="Vector_121" d="M103.3 81.1425C103.395 81.0569 103.469 80.9506 103.517 80.8318C103.564 80.713 103.584 80.5848 103.575 80.4572C103.565 80.3296 103.526 80.2059 103.461 80.0955C103.397 79.9852 103.307 79.8911 103.201 79.8206C102.954 79.6694 102.868 77.9069 102.172 78.0365C101.477 78.1661 101.848 79.6392 101.594 80.1446C101.339 80.6501 101.105 81.5011 101.844 81.6005C102.37 81.643 102.893 81.4787 103.3 81.1425Z" fill="white"/>
<path id="Vector_122" d="M98.5263 96.336C98.6188 96.2493 98.6912 96.1434 98.7382 96.0256C98.7852 95.9079 98.8058 95.7812 98.7984 95.6546C98.7909 95.528 98.7557 95.4047 98.6953 95.2932C98.6348 95.1818 98.5506 95.085 98.4485 95.0097C98.2023 94.8542 98.1461 93.083 97.4506 93.204C96.7551 93.3249 97.1007 94.8067 96.8371 95.3078C96.5736 95.8089 96.3317 96.66 97.0661 96.7723C97.5914 96.8257 98.1164 96.6688 98.5263 96.336Z" fill="white"/>
<path id="Vector_123" d="M108.471 111.84C108.553 111.408 106.907 109.931 106.419 110.035C105.931 110.138 104.911 111.836 104.941 112.445C104.972 113.054 106.065 114.216 106.63 113.867C107.196 113.517 108.32 112.635 108.471 111.84Z" fill="white"/>
<path id="Vector_124" d="M104.363 128.771L106.363 128.507C107.011 124.425 107.797 119.781 108.173 117.577C108.259 117.076 108.324 116.713 108.363 116.489C108.575 115.249 107.857 114.635 107.218 114.618C107.041 114.607 106.866 114.653 106.717 114.75C106.568 114.846 106.455 114.988 106.393 115.154C106.116 115.906 105.075 123.306 104.363 128.771Z" fill="white"/>
<path id="Vector_125" d="M108.721 117.504C109.236 118.126 109.741 118.575 109.724 118.752C109.706 118.93 109.512 122.99 109.27 128.123L113.771 127.526C114.052 122.774 114.381 118.96 114.692 118.368C115.556 116.752 119.012 114.268 117.215 112.342C115.417 110.415 113.452 110.951 112.134 111.046C110.817 111.141 110.782 110.903 108.492 113.348C108.156 113.688 107.907 114.105 107.767 114.562C107.438 115.685 108.086 116.731 108.721 117.504Z" fill="white"/>
<path id="Vector_126" d="M139.104 83.6913C141.648 86.8492 146.962 90.262 148.007 93.0873C148.289 93.7745 148.343 94.5343 148.159 95.254C147.975 95.9738 147.565 96.6152 146.988 97.0833C146.988 97.0833 150.237 97.8393 150.764 100.561C151.031 101.965 149.036 103.624 149.036 103.624C149.036 103.624 151.628 104.345 151.93 106.795C152.185 108.743 150.141 110.117 150.141 110.117C150.141 110.117 152.301 111.961 151.913 114.031C151.144 118.23 134.71 122.152 130.745 116.705C128.891 114.169 132.957 113.426 132.957 113.426C132.957 113.426 126.852 113.08 125.958 109.711C125.064 106.341 130.403 105.702 130.403 105.702C130.403 105.702 124.489 105.313 123.923 101.732C123.323 97.9991 128.775 98.2756 128.775 98.2756C128.775 98.2756 124.528 96.6729 124.718 93.826C125.025 89.1302 133.259 92.962 136.663 91.2599L137.233 84.8274L139.104 83.6913Z" fill="#D3766A"/>
<path id="Vector_127" d="M143.636 88.0804C141.476 84.8793 144.806 79.5009 143.204 76.1443C141.044 71.6039 136.758 77.5871 137.216 84.8231L138.564 90.383L143.636 88.0804Z" fill="#D3766A"/>
<path id="Vector_128" d="M149.848 110.38C149.859 110.376 149.871 110.376 149.882 110.38C149.893 110.385 149.902 110.393 149.906 110.404C149.911 110.415 149.911 110.427 149.906 110.438C149.902 110.449 149.893 110.458 149.882 110.462C144.794 113.054 138.4 114.372 132.715 113.486C132.529 113.456 132.494 113.141 132.715 113.132C138.741 112.929 144.076 112.26 149.848 110.38Z" fill="#263238"/>
<path id="Vector_129" d="M149.118 103.641C149.182 103.641 149.217 103.723 149.152 103.753C143.895 106.414 136.654 107.685 130.222 105.913C130.002 105.853 129.863 105.576 130.123 105.628C134.49 106.475 143.934 105.356 149.118 103.641Z" fill="#263238"/>
<path id="Vector_130" d="M128.304 97.9948C134.538 99.468 140.62 98.794 146.763 97.2043C146.845 97.2043 146.867 97.2993 146.802 97.3339C144.007 98.9323 139.985 99.5371 136.814 99.7444C133.875 99.9891 130.923 99.4604 128.252 98.2108C128.157 98.1633 128.183 97.9646 128.304 97.9948Z" fill="#263238"/>
<path id="Vector_131" d="M58.2422 111.456C58.5748 112.32 61.8408 118.027 65.9232 118.027C68.5152 118.027 67.8672 109.227 67.8672 109.227L67.9104 108.678L68.5022 101.002L58.9593 96.6384L57.5942 96.0768C57.5942 96.0768 57.5683 98.1893 57.564 100.829V101.205C57.564 101.352 57.564 101.494 57.564 101.637C57.564 102.03 57.564 102.432 57.564 102.829C57.564 103.136 57.564 103.429 57.564 103.749C57.564 104.069 57.564 104.38 57.5856 104.7C57.7152 107.844 58.104 111.076 58.2422 111.456Z" fill="#D3766A"/>
<path id="Vector_132" d="M57.564 100.816C58.6149 102.797 60.0849 104.526 61.8717 105.881C63.6585 107.237 65.7192 108.187 67.9104 108.665L68.5022 100.989L58.9593 96.6384L57.5942 96.0768C57.5942 96.0768 57.5683 98.1893 57.564 100.816Z" fill="#263238"/>
<path id="Vector_133" d="M77.6952 87.9725C80.5464 101.179 72.9432 104.388 70.1049 104.989C67.5129 105.546 58.644 107.106 54.4449 94.2624C50.2459 81.419 55.4817 75.9197 61.331 74.3342C67.1803 72.7488 74.844 74.7619 77.6952 87.9725Z" fill="#D3766A"/>
<path id="Vector_134" d="M53.8833 92.4004C55.365 92.2492 59.0673 88.0027 58.8772 80.8228C58.8772 80.8228 58.5964 87.2812 58.1514 88.2446C57.7065 89.2079 60.2207 85.8556 60.1516 80.0625C60.1516 80.0625 63.4521 82.2225 66.1996 82.8921C68.9471 83.5617 70.6362 83.4451 70.822 83.242C71.0078 83.039 66.934 81.946 65.7935 80.7278C65.7935 80.7278 73.2023 83.8036 76.5633 83.9159C76.9521 83.9159 77.0817 75.9412 71.7594 72.779C66.4372 69.6167 58.3674 73.6084 56.2722 75.8332C56.2722 75.8332 53.6802 76.3127 51.045 80.2612C48.4098 84.2097 52.2719 92.5646 53.8833 92.4004Z" fill="#263238"/>
<path id="Vector_135" d="M56.5919 93.2169C56.5919 93.2169 53.1359 89.4024 51.369 90.6854C49.6021 91.9684 52.57 97.7572 54.9028 98.3059C55.1974 98.3964 55.5073 98.4265 55.8139 98.3944C56.1205 98.3622 56.4174 98.2685 56.6869 98.1189C56.9563 97.9692 57.1928 97.7667 57.3821 97.5234C57.5714 97.2801 57.7097 97.0011 57.7885 96.7032L56.5919 93.2169Z" fill="#D3766A"/>
<path id="Vector_136" d="M52.2373 92.327C52.2028 92.327 52.2028 92.3789 52.2373 92.3875C53.8833 92.8195 54.8855 94.1673 55.6545 95.5973C55.1145 95.0789 54.4449 94.8413 53.7364 95.4893C53.7018 95.5238 53.7364 95.5843 53.7925 95.5713C54.0555 95.4483 54.3501 95.4101 54.6357 95.462C54.9213 95.5138 55.1837 95.6532 55.3866 95.8608C55.7261 96.2097 56.026 96.5951 56.2809 97.0099C56.3716 97.1395 56.6135 97.0358 56.5401 96.8803C56.5401 96.8803 56.5401 96.8803 56.5401 96.8457C56.3068 94.8456 54.4017 92.2536 52.2373 92.327Z" fill="#263238"/>
<path id="Vector_137" d="M74.3428 86.7715C74.0232 86.7715 73.7294 86.7456 73.4097 86.7283C73.0804 86.759 72.7503 86.6784 72.4723 86.4993C72.3946 86.427 72.3431 86.3309 72.3259 86.2261C72.3087 86.1213 72.3268 86.0138 72.3772 85.9204C72.5056 85.752 72.6765 85.6208 72.8724 85.5403C73.0683 85.4598 73.2821 85.433 73.4918 85.4625C73.926 85.4566 74.3472 85.6103 74.6755 85.8945C74.7456 85.9645 74.794 86.0533 74.8148 86.1502C74.8357 86.2471 74.8281 86.348 74.7929 86.4406C74.7578 86.5333 74.6966 86.6138 74.6167 86.6725C74.5369 86.7312 74.4418 86.7656 74.3428 86.7715Z" fill="#263238"/>
<path id="Vector_138" d="M64.908 86.7585C65.2017 86.6615 65.4901 86.549 65.772 86.4216C66.095 86.3457 66.3847 86.1668 66.5971 85.9118C66.6461 85.818 66.6634 85.7109 66.6462 85.6065C66.6291 85.5021 66.5785 85.4061 66.5021 85.3329C66.3271 85.2125 66.1231 85.1409 65.9112 85.1257C65.6993 85.1105 65.4872 85.1522 65.2968 85.2465C64.8819 85.3742 64.5303 85.6533 64.3118 86.0284C64.266 86.1174 64.2472 86.2179 64.2577 86.3174C64.2682 86.4169 64.3075 86.5112 64.3708 86.5887C64.4341 86.6663 64.5186 86.7236 64.614 86.7538C64.7095 86.7839 64.8116 86.7856 64.908 86.7585Z" fill="#263238"/>
<path id="Vector_139" d="M67.6511 90.1151C67.6511 90.0806 67.5906 90.1713 67.5949 90.2059C67.7936 91.1044 67.8671 92.1671 67.1067 92.6164C67.0808 92.6164 67.1067 92.6769 67.1067 92.6683C68.0917 92.3443 67.9794 90.9359 67.6511 90.1151Z" fill="#263238"/>
<path id="Vector_140" d="M66.6705 89.3203C65.1974 89.4801 65.625 92.4134 66.9902 92.2665C68.3553 92.1197 67.906 89.1864 66.6705 89.3203Z" fill="#263238"/>
<path id="Vector_141" d="M66.1176 89.5579C65.8843 89.7609 65.6856 90.0936 65.3702 90.167C65.0548 90.2404 64.7049 89.9856 64.4284 89.735C64.3982 89.7091 64.3766 89.735 64.3809 89.7739C64.4544 90.3398 64.7568 90.8841 65.3702 90.8798C65.9836 90.8755 66.2558 90.3225 66.312 89.735C66.3249 89.6184 66.2083 89.4758 66.1176 89.5579Z" fill="#263238"/>
<path id="Vector_142" d="M72.8394 88.9617C72.8394 88.9272 72.9172 88.9963 72.9172 89.0352C73.0165 89.9467 73.2801 90.9792 74.1441 91.1692C74.17 91.1692 74.1743 91.2211 74.1441 91.2211C73.1202 91.2168 72.7833 89.856 72.8394 88.9617Z" fill="#263238"/>
<path id="Vector_143" d="M73.522 87.899C74.9692 87.588 75.4876 90.491 74.1441 90.7977C72.8006 91.1044 72.3038 88.1625 73.522 87.899Z" fill="#263238"/>
<path id="Vector_144" d="M74.1615 87.9854C74.4207 88.0977 74.7015 88.3397 74.978 88.3094C75.2545 88.2792 75.4834 87.9163 75.6346 87.575C75.6346 87.5405 75.6778 87.575 75.6822 87.6009C75.7988 88.1539 75.7167 88.7673 75.1983 88.9704C74.6799 89.1734 74.2825 88.7414 74.0535 88.2101C74.0103 88.128 74.0578 87.9379 74.1615 87.9854Z" fill="#263238"/>
<path id="Vector_145" d="M68.6621 97.1179C68.904 97.3079 69.1503 97.5801 69.4872 97.5758C69.8265 97.5354 70.1534 97.4235 70.4463 97.2475C70.4491 97.2446 70.4525 97.2424 70.4562 97.2408C70.4599 97.2393 70.4639 97.2385 70.4679 97.2385C70.4719 97.2385 70.4759 97.2393 70.4796 97.2408C70.4833 97.2424 70.4866 97.2446 70.4895 97.2475C70.4923 97.2503 70.4946 97.2537 70.4961 97.2574C70.4976 97.2611 70.4984 97.265 70.4984 97.2691C70.4984 97.2731 70.4976 97.277 70.4961 97.2807C70.4946 97.2845 70.4923 97.2878 70.4895 97.2907C70.3768 97.4834 70.2141 97.6421 70.0187 97.7501C69.8233 97.8581 69.6024 97.9113 69.3792 97.9041C69.1877 97.8742 69.0095 97.788 68.8672 97.6564C68.7248 97.5249 68.6249 97.3539 68.58 97.1654C68.5584 97.1135 68.6275 97.0876 68.6621 97.1179Z" fill="#263238"/>
<path id="Vector_146" d="M71.9411 93.2386C71.9411 93.2386 72.3731 94.7765 72.4767 95.3986C72.4767 95.459 70.3167 95.351 68.619 95.796C68.5412 95.8176 68.4505 95.6837 68.619 95.58C69.6774 94.9795 71.9022 94.9363 71.9022 94.9363C71.9022 94.8326 71.1375 92.6856 71.2369 92.664C71.7402 92.6287 72.246 92.6621 72.7403 92.7634C71.9886 89.977 70.7919 87.3331 70.0834 84.5554C70.0764 84.5345 70.0777 84.5118 70.0869 84.4918C70.096 84.4718 70.1125 84.4561 70.1329 84.4478C70.1533 84.4395 70.1761 84.4394 70.1966 84.4473C70.2171 84.4552 70.2338 84.4707 70.2433 84.4906C71.6948 87.169 72.6323 90.3571 73.4833 93.217C73.6086 93.5798 72.2132 93.312 71.9411 93.2386Z" fill="#263238"/>
<path id="Vector_147" d="M68.5022 114.787C68.3337 114.618 68.7441 111.266 68.5843 111.132C68.1523 110.769 67.1155 111.802 65.2752 111.737C62.074 111.629 58.631 108.566 57.8923 108.816C57.1536 109.067 57.2184 112.761 57.0283 112.869C56.8382 112.977 63.7113 119.098 65.8929 118.515C68.0745 117.932 68.5022 114.787 68.5022 114.787Z" fill="#FF7C65"/>
<path id="Vector_148" d="M67.392 114.48C67.4654 113.698 67.5993 112.925 67.6382 112.139C67.6419 112.125 67.65 112.112 67.6613 112.104C67.6727 112.095 67.6865 112.09 67.7008 112.09C67.7151 112.09 67.729 112.095 67.7404 112.104C67.7517 112.112 67.7598 112.125 67.7635 112.139C67.8132 112.936 67.8132 113.735 67.7635 114.532C67.7019 115.31 67.5482 116.079 67.3056 116.821C67.3025 116.831 67.2965 116.84 67.2884 116.846C67.2802 116.852 67.2703 116.855 67.2602 116.855C67.2501 116.855 67.2402 116.852 67.2321 116.846C67.2239 116.84 67.2179 116.831 67.2148 116.821C67.2364 116.014 67.3185 115.236 67.392 114.48Z" fill="#263238"/>
<path id="Vector_149" d="M65.543 117.111C65.543 116.929 65.5733 116.744 65.5906 116.562C65.6251 116.16 65.6683 115.759 65.7115 115.357C65.7547 114.955 65.7893 114.553 65.8238 114.152C65.8584 113.75 65.9275 113.352 65.9232 112.942C65.9232 112.86 66.0442 112.864 66.0485 112.942C66.0787 113.348 66.1565 113.746 66.1737 114.156C66.1888 114.575 66.1802 114.995 66.1478 115.413C66.1189 115.802 66.064 116.189 65.9837 116.571C65.9448 116.77 65.8929 116.964 65.8368 117.154C65.7806 117.344 65.6683 117.56 65.6122 117.763C65.6122 117.815 65.5085 117.802 65.5171 117.763C65.5474 117.547 65.5258 117.323 65.543 117.111Z" fill="#263238"/>
<path id="Vector_150" d="M63.9966 112.566C63.9966 112.493 64.1175 112.519 64.1218 112.588C64.2246 114.042 64.0785 115.503 63.6898 116.908C63.6898 116.917 63.6862 116.926 63.6797 116.932C63.6732 116.939 63.6645 116.942 63.6553 116.942C63.6461 116.942 63.6373 116.939 63.6308 116.932C63.6244 116.926 63.6207 116.917 63.6207 116.908C63.556 115.45 63.6823 113.991 63.9966 112.566Z" fill="#263238"/>
<path id="Vector_151" d="M61.9271 113.931C61.9531 113.59 61.9617 113.249 62.0049 112.912C62.0247 112.588 62.0753 112.267 62.1561 111.953C62.1598 111.939 62.1679 111.927 62.1792 111.918C62.1905 111.909 62.2044 111.905 62.2187 111.905C62.233 111.905 62.2469 111.909 62.2583 111.918C62.2696 111.927 62.2777 111.939 62.2814 111.953C62.3412 112.27 62.3644 112.593 62.3505 112.916C62.3505 113.266 62.3289 113.625 62.303 113.975C62.2346 114.649 62.125 115.318 61.9747 115.979C61.9747 116.035 61.8796 116.018 61.8839 115.979C61.8969 115.292 61.8753 114.61 61.9271 113.931Z" fill="#263238"/>
<path id="Vector_152" d="M60.3159 110.981C60.3159 110.912 60.4369 110.933 60.4369 111.002C60.4867 112.21 60.366 113.418 60.0783 114.592C60.0783 114.601 60.0747 114.61 60.0682 114.617C60.0617 114.623 60.0529 114.627 60.0437 114.627C60.0346 114.627 60.0258 114.623 60.0193 114.617C60.0128 114.61 60.0092 114.601 60.0092 114.592C59.9394 113.38 60.0426 112.164 60.3159 110.981Z" fill="#263238"/>
<path id="Vector_153" d="M58.2897 111.745C58.2897 111.447 58.5921 110.074 58.6396 109.801C58.6396 109.711 58.7736 109.728 58.7649 109.823C58.7304 110.151 58.6396 111.439 58.6008 111.754C58.5187 112.38 58.4582 113.011 58.3632 113.633C58.3632 113.659 58.3156 113.672 58.3156 113.633C58.2578 113.006 58.2492 112.374 58.2897 111.745Z" fill="#263238"/>
<path id="Vector_154" d="M32.953 177.085C41.7442 180.369 64.921 166.393 78.5075 154.833C81.0994 152.634 59.8494 130.339 57.3394 132.965C54.7045 135.774 51.8952 138.415 48.9284 140.871C48.1508 141.402 23.3281 173.482 32.953 177.085Z" fill="#D3766A"/>
<path id="Vector_155" d="M94.8629 117.841C95.9386 120.912 88.141 122.917 88.141 122.917C89.4995 123.268 90.6938 124.08 91.5192 125.215C92.8714 127.289 90.2232 130.317 90.2232 130.317C91.5567 130.972 92.6618 132.014 93.3941 133.307C94.4914 135.419 92.2493 138.858 92.2493 138.858C93.1416 140.137 93.5448 141.695 93.3854 143.247C92.785 147.372 86.7456 149.532 83.2723 151.61C79.4112 154.023 75.7531 156.747 72.3341 159.754L55.8533 134.507C55.8533 134.507 68.783 119.267 73.3968 117.923C77.2805 116.787 93.2213 113.145 94.8629 117.841Z" fill="#D3766A"/>
<path id="Vector_156" d="M88.0502 122.852C83.6266 123.068 79.2634 124.343 75.0902 125.617C75.0713 125.623 75.0555 125.636 75.0462 125.653C75.0368 125.671 75.0348 125.691 75.0406 125.71C75.0463 125.729 75.0593 125.745 75.0767 125.754C75.0941 125.763 75.1145 125.765 75.1334 125.76C79.2936 124.464 83.903 124.209 88.0934 123.06C88.1164 123.05 88.1353 123.032 88.1468 123.01C88.1584 122.988 88.1619 122.963 88.1568 122.938C88.1518 122.914 88.1383 122.892 88.1189 122.876C88.0995 122.86 88.0752 122.852 88.0502 122.852Z" fill="#263238"/>
<path id="Vector_157" d="M89.9986 130.032C88.9989 130.176 88.0226 130.452 87.0956 130.853C86.0876 131.216 85.0796 131.594 84.0716 131.989C82.08 132.78 80.1058 133.613 78.1618 134.507C78.0754 134.546 78.1143 134.689 78.205 134.65C80.1922 133.868 82.188 133.112 84.2055 132.412C85.2164 132.064 86.2244 131.723 87.2295 131.388C88.207 131.134 89.1532 130.772 90.0504 130.308C90.0761 130.292 90.0964 130.269 90.1085 130.241C90.1207 130.213 90.1242 130.182 90.1186 130.153C90.113 130.123 90.0986 130.095 90.0772 130.074C90.0558 130.052 90.0284 130.038 89.9986 130.032Z" fill="#263238"/>
<path id="Vector_158" d="M92.1586 138.888C91.2946 138.923 90.3787 139.437 89.5666 139.752C88.668 140.132 87.7651 140.504 86.8622 140.875C85.0565 141.61 83.2507 142.348 81.4147 143.035C81.324 143.07 81.3715 143.212 81.4622 143.178C83.3285 142.504 85.199 141.856 87.0782 141.16C87.9912 140.823 88.9013 140.479 89.8085 140.128C90.5818 139.83 91.5797 139.549 92.2018 138.974C92.2363 138.948 92.2061 138.888 92.1586 138.888Z" fill="#263238"/>
<path id="Vector_159" d="M30.3524 176.148C39.3769 185.587 71.4356 161.257 71.4356 161.257L58.1473 131.915C58.1473 131.915 50.4188 140.417 49.9393 140.041C49.4597 139.666 21.3322 166.709 30.3524 176.148Z" fill="#FCF4F3"/>
<path id="Vector_160" d="M66.286 161.058C64.2815 157.261 56.6567 141.437 55.2398 137.907C55.1404 137.661 55.2743 137.54 55.4083 137.782C61.6809 149.014 64.6574 157.149 66.4329 160.972C66.4761 161.067 66.3335 161.136 66.286 161.058Z" fill="#263238"/>
<path id="Vector_161" d="M57.9356 132.019C57.0113 132.757 56.1447 133.564 55.3436 134.434C54.5962 135.181 53.8532 135.924 53.1188 136.68C51.5204 138.322 49.9652 139.998 48.4186 141.687C46.8721 143.376 45.3514 145.079 43.8481 146.802C42.3447 148.526 40.958 150.336 39.459 152.064C39.3942 152.142 39.5194 152.237 39.5886 152.159C41.1265 150.457 42.781 148.854 44.3406 147.187L48.9802 142.283C50.5268 140.651 52.082 139.031 53.6242 137.393C54.3802 136.594 55.1276 135.786 55.8793 134.983C56.7251 134.155 57.5118 133.268 58.2337 132.33C58.2577 132.288 58.2675 132.239 58.2616 132.191C58.2557 132.143 58.2343 132.098 58.2008 132.063C58.1673 132.028 58.1233 132.005 58.0756 131.997C58.0278 131.989 57.9787 131.997 57.9356 132.019Z" fill="#263238"/>
<path id="Vector_162" d="M71.2799 160.57C71.1935 160.371 71.0769 160.363 71.1115 160.596C71.1115 160.721 71.1892 160.942 71.2108 161.067C70.0876 161.81 66.0268 164.678 65.0548 165.387C62.9726 166.838 60.9767 168.389 58.7908 169.677C33.0177 184.814 30.0671 175.176 29.4451 174.934C29.35 174.895 29.3889 174.956 29.4451 175.046C29.8771 175.837 33.0609 185.846 59.0673 170.212C61.2705 168.886 63.4607 167.517 65.5473 166.03C66.5971 165.287 67.6252 164.514 68.6404 163.728C69.658 163.028 70.6018 162.226 71.4571 161.335C71.4872 161.299 71.5068 161.255 71.5137 161.208C71.5205 161.162 71.5144 161.114 71.4959 161.071C71.4311 160.903 71.3577 160.734 71.2799 160.57Z" fill="#263238"/>
</g>
<g id="freepik--Desk--inject-120">
<path id="Vector_163" d="M14.4287 179.626L37.8215 179.522L61.2143 179.483L108 179.41L154.786 179.483L178.178 179.522L201.571 179.626L178.178 179.734L154.786 179.768L108 179.842L61.2143 179.768L37.8215 179.734L14.4287 179.626Z" fill="#263238"/>
</g>
<g id="freepik--Device--inject-120">
<path id="Vector_164" d="M132.892 182.805H77.613V185.285H132.892V182.805Z" fill="#455A64"/>
<path id="Vector_165" d="M132.892 182.805H105.071V185.285H132.892V182.805Z" fill="#263238"/>
<path id="Vector_166" d="M108.065 185.281H161.939L168.981 148.694H115.106L108.065 185.281Z" fill="#455A64"/>
<path id="Vector_167" d="M135.242 166.985C135.197 167.403 135.241 167.826 135.371 168.225C135.501 168.624 135.715 168.992 135.998 169.302C136.281 169.613 136.627 169.859 137.013 170.026C137.399 170.193 137.816 170.275 138.236 170.268C139.129 170.252 139.985 169.909 140.643 169.304C141.3 168.699 141.713 167.874 141.804 166.985C141.849 166.568 141.805 166.145 141.675 165.746C141.545 165.347 141.331 164.98 141.048 164.67C140.764 164.36 140.418 164.113 140.033 163.947C139.647 163.781 139.23 163.699 138.81 163.706C137.918 163.723 137.062 164.065 136.405 164.669C135.747 165.273 135.334 166.097 135.242 166.985Z" fill="#263238"/>
</g>
<g id="freepik--speech-bubble--inject-120">
<path id="Vector_168" d="M111.456 55.3306C111.153 58.2249 110.052 60.9781 108.275 63.2832C106.499 65.5883 104.117 67.3545 101.395 68.3849C98.6737 69.4153 95.7193 69.6694 92.8618 69.1188C90.0042 68.5681 87.3557 67.2345 85.2118 65.2666L77.3538 66.42L81.3022 59.616C80.396 57.4039 80.0066 55.0141 80.1637 52.6287C80.3209 50.2433 81.0204 47.9252 82.2091 45.8511C83.3978 43.777 85.0441 42.0015 87.0228 40.66C89.0015 39.3185 91.2603 38.4464 93.6271 38.11C95.9939 37.7736 98.4063 37.9819 100.68 38.719C102.954 39.4561 105.03 40.7025 106.75 42.3633C108.469 44.0242 109.787 46.0555 110.603 48.3027C111.418 50.5499 111.71 52.9535 111.456 55.3306Z" fill="white"/>
<path id="Vector_169" d="M111.456 55.3306C111.153 58.2253 110.057 60.9803 108.289 63.2924C107.847 63.8672 107.371 64.4154 106.864 64.934C106.341 65.4352 105.787 65.9027 105.205 66.3336C102.875 68.0908 100.105 69.1702 97.1999 69.4527C96.4747 69.5189 95.7456 69.5334 95.0183 69.4959C94.2934 69.4774 93.571 69.4008 92.8583 69.2669C89.9593 68.7382 87.2659 67.4095 85.0823 65.4308L85.2681 65.4912L77.4186 66.6965L76.8484 66.7829L77.1378 66.2818L81.0474 59.4735L81.0258 59.7413C80.1052 57.4891 79.7137 55.0556 79.8815 52.6282C80.0493 50.2009 80.7718 47.8444 81.9935 45.7402C83.2174 43.6458 84.8996 41.8558 86.914 40.5044C88.9277 39.1694 91.2178 38.3084 93.6122 37.9859C96.0065 37.6634 98.4429 37.8879 100.738 38.6424C103.006 39.4149 105.072 40.6842 106.786 42.3576C108.495 44.0259 109.803 46.0602 110.612 48.3073C111.421 50.5544 111.71 52.9558 111.456 55.3306ZM111.456 55.3306C111.704 52.967 111.407 50.578 110.588 48.3471C109.769 46.1161 108.449 44.1026 106.73 42.4611C105.012 40.8197 102.94 39.5939 100.674 38.878C98.4074 38.1621 96.0072 37.9751 93.6575 38.3314C91.3316 38.6842 89.1159 39.5601 87.1775 40.8932C85.2596 42.2425 83.6575 43.9921 82.4817 46.021C81.3222 48.0562 80.6398 50.328 80.4858 52.6652C80.3399 55 80.7177 57.338 81.5917 59.508L81.6479 59.6506L81.5745 59.7802L77.6173 66.5583L77.3366 66.1263L85.2033 65.0247H85.3113L85.389 65.0938C87.4844 67.0659 90.0896 68.4126 92.9102 68.9818C93.6118 69.1263 94.3241 69.213 95.0399 69.241C95.759 69.2933 96.4809 69.2933 97.1999 69.241C98.6343 69.1319 100.046 68.8222 101.395 68.3208C102.751 67.8288 104.027 67.1403 105.183 66.2775C105.763 65.8488 106.317 65.3857 106.842 64.8908C107.353 64.3817 107.83 63.8406 108.272 63.2708C110.044 60.9676 111.146 58.2199 111.456 55.3306Z" fill="#263238"/>
<path id="Vector_170" d="M97.4851 55.525V57.3696C97.4893 57.5532 97.4561 57.7358 97.3876 57.9062C97.3191 58.0766 97.2167 58.2313 97.0867 58.361C96.9566 58.4906 96.8016 58.5925 96.631 58.6605C96.4603 58.7285 96.2777 58.7611 96.0941 58.7563C95.7267 58.7552 95.3746 58.6087 95.1148 58.3489C94.855 58.0891 94.7085 57.7371 94.7074 57.3696V54.432C94.7074 54.4018 94.7376 54.4018 94.7376 54.3759C94.7376 54.3499 94.7074 54.3456 94.7074 54.3154C94.7182 53.951 94.8678 53.6046 95.1256 53.3468C95.3833 53.0891 95.7297 52.9395 96.0941 52.9287C96.5206 52.9444 96.946 52.874 97.3447 52.7216C97.7434 52.5693 98.1073 52.3381 98.4146 52.0419C98.7219 51.7457 98.9664 51.3905 99.1334 50.9977C99.3003 50.6049 99.3864 50.1825 99.3864 49.7556C99.3864 49.3288 99.3003 48.9063 99.1334 48.5135C98.9664 48.1207 98.7219 47.7656 98.4146 47.4694C98.1073 47.1732 97.7434 46.942 97.3447 46.7896C96.946 46.6373 96.5206 46.5668 96.0941 46.5826C95.544 46.5806 95.0032 46.7238 94.5261 46.9976C94.049 47.2714 93.6526 47.6662 93.3768 48.1421C93.2847 48.303 93.1615 48.4441 93.0144 48.557C92.8674 48.6699 92.6993 48.7525 92.5201 48.7999C92.3408 48.8473 92.1539 48.8587 91.9702 48.8333C91.7865 48.8078 91.6097 48.7462 91.4501 48.6519C91.2936 48.5593 91.1569 48.4367 91.048 48.2911C90.9391 48.1455 90.8601 47.9798 90.8155 47.8035C90.7709 47.6272 90.7617 47.4438 90.7883 47.2639C90.8149 47.084 90.8769 46.9112 90.9706 46.7554C91.4649 45.9018 92.1636 45.1845 93.0039 44.6678C93.8441 44.1512 94.7995 43.8514 95.7843 43.7955C96.7691 43.7395 97.7524 43.9292 98.6457 44.3473C99.5391 44.7655 100.315 45.3991 100.902 46.1912C101.49 46.9833 101.872 47.909 102.013 48.8852C102.155 49.8614 102.051 50.8574 101.713 51.7838C101.374 52.7101 100.81 53.5378 100.072 54.1923C99.3343 54.8468 98.4453 55.3078 97.4851 55.5336V55.525ZM97.4851 61.7285V62.2383C97.4899 62.4222 97.4572 62.6052 97.3889 62.7762C97.3207 62.9471 97.2184 63.1023 97.0883 63.2325C96.9582 63.3626 96.8029 63.4649 96.632 63.5331C96.4611 63.6013 96.2781 63.6341 96.0941 63.6293C95.7259 63.6282 95.3732 63.4811 95.1133 63.2204C94.8533 62.9596 94.7074 62.6064 94.7074 62.2383V61.7285C94.7129 61.3625 94.8608 61.013 95.1197 60.7541C95.3786 60.4953 95.728 60.3474 96.0941 60.3418C96.277 60.3395 96.4586 60.3737 96.6281 60.4426C96.7977 60.5114 96.9517 60.6134 97.0813 60.7425C97.2109 60.8717 97.3134 61.0255 97.3827 61.1948C97.452 61.3641 97.4869 61.5456 97.4851 61.7285Z" fill="#FF7C65"/>
</g>
</g>
</svg>
